<?xml version="1.0" encoding="UTF-8"?>
<svg id="Layer_1" xmlns="http://www.w3.org/2000/svg" version="1.1" viewBox="0 0 2571.43 2000">
  <!-- Generator: Adobe Illustrator 29.5.0, SVG Export Plug-In . SVG Version: 2.1.0 Build 137)  -->
  <defs>
    <style>
      .st0 {
        opacity: .3;
      }

      .st0, .st1, .st2 {
        fill: #4cab48;
      }

      .st1 {
        opacity: .1;
      }
    </style>
  </defs>
  <circle class="st2" cx="1285.71" cy="1000" r="4.78"/>
  <path class="st2" d="M1349.62,1012.94c7.14,0,12.94-5.79,12.94-12.94s-5.79-12.94-12.94-12.94-12.94,5.79-12.94,12.94,5.79,12.94,12.94,12.94Z"/>
  <circle class="st2" cx="1305.46" cy="1060.78" r="10.45"/>
  <path class="st2" d="M1238.09,1037.56c0-2.25-1.82-4.08-4.08-4.08s-4.08,1.82-4.08,4.08,1.82,4.08,4.08,4.08,4.08-1.82,4.08-4.08Z"/>
  <path class="st2" d="M1229.41,962.44c0,2.54,2.06,4.61,4.61,4.61s4.61-2.06,4.61-4.61-2.06-4.61-4.61-4.61-4.61,2.06-4.61,4.61Z"/>
  <path class="st2" d="M1301.39,939.22c0,2.25,1.82,4.08,4.08,4.08s4.08-1.82,4.08-4.08-1.82-4.08-4.08-4.08-4.08,1.82-4.08,4.08Z"/>
  <circle class="st2" cx="1413.52" cy="1000" r="5.67"/>
  <circle class="st2" cx="1389.11" cy="1075.12" r="5.32"/>
  <path class="st2" d="M1325.21,1117.83c-2.06,0-3.72,1.67-3.72,3.72s1.67,3.72,3.72,3.72,3.72-1.67,3.72-3.72-1.67-3.72-3.72-3.72Z"/>
  <path class="st2" d="M1246.22,1115.7c-3.23,0-5.85,2.62-5.85,5.85s2.62,5.85,5.85,5.85,5.85-2.62,5.85-5.85-2.62-5.85-5.85-5.85Z"/>
  <path class="st2" d="M1187.28,1075.12c0-2.74-2.22-4.96-4.96-4.96s-4.96,2.22-4.96,4.96,2.22,4.96,4.96,4.96,4.96-2.22,4.96-4.96Z"/>
  <path class="st2" d="M1162.69,1000c0-2.64-2.14-4.78-4.78-4.78s-4.78,2.14-4.78,4.78,2.14,4.78,4.78,4.78,4.78-2.14,4.78-4.78Z"/>
  <path class="st2" d="M1182.32,916.55c-4.6,0-8.33,3.73-8.33,8.33s3.73,8.33,8.33,8.33,8.33-3.73,8.33-8.33-3.73-8.33-8.33-8.33Z"/>
  <path class="st2" d="M1246.22,871.72c-3.72,0-6.73,3.01-6.73,6.73s3.02,6.73,6.73,6.73,6.73-3.01,6.73-6.73-3.01-6.73-6.73-6.73Z"/>
  <path class="st2" d="M1325.21,883.41c2.74,0,4.96-2.22,4.96-4.96s-2.22-4.96-4.96-4.96-4.96,2.22-4.96,4.96,2.22,4.96,4.96,4.96Z"/>
  <circle class="st2" cx="1389.11" cy="924.88" r="3.72"/>
  <circle class="st2" cx="1477.42" cy="1000" r="6.56"/>
  <path class="st2" d="M1454.47,1077.97c0,3.52,2.86,6.38,6.38,6.38s6.38-2.86,6.38-6.38-2.86-6.38-6.38-6.38-6.38,2.86-6.38,6.38Z"/>
  <path class="st2" d="M1413.99,1136.62c-3.23,0-5.85,2.62-5.85,5.85s2.62,5.85,5.85,5.85,5.85-2.62,5.85-5.85-2.62-5.85-5.85-5.85Z"/>
  <path class="st2" d="M1350.27,1182.33c0-2.94-2.38-5.32-5.32-5.32s-5.32,2.38-5.32,5.32,2.38,5.32,5.32,5.32,5.32-2.38,5.32-5.32Z"/>
  <path class="st2" d="M1262.13,1190.66c0,1.96,1.59,3.54,3.54,3.54s3.54-1.59,3.54-3.54-1.59-3.54-3.54-3.54-3.54,1.59-3.54,3.54Z"/>
  <path class="st2" d="M1189.86,1161.42c-2.54,0-4.61,2.06-4.61,4.61s2.06,4.61,4.61,4.61,4.61-2.06,4.61-4.61-2.06-4.61-4.61-4.61Z"/>
  <circle class="st2" cx="1130.62" cy="1112.68" r="6.56"/>
  <path class="st2" d="M1098.2,1045.17c2.94,0,5.32-2.38,5.32-5.32s-2.38-5.32-5.32-5.32-5.32,2.38-5.32,5.32,2.38,5.32,5.32,5.32Z"/>
  <path class="st2" d="M1098.2,951.46c-4.8,0-8.68,3.89-8.68,8.68s3.89,8.68,8.68,8.68,8.68-3.89,8.68-8.68-3.89-8.68-8.68-8.68Z"/>
  <circle class="st2" cx="1130.62" cy="887.32" r="9.04"/>
  <circle class="st2" cx="1189.86" cy="833.98" r="7.44"/>
  <circle class="st2" cx="1265.68" cy="809.34" r="5.49"/>
  <path class="st2" d="M1339.46,817.67c0,3.03,2.46,5.49,5.49,5.49s5.49-2.46,5.49-5.49-2.46-5.49-5.49-5.49-5.49,2.46-5.49,5.49Z"/>
  <path class="st2" d="M1413.99,861.08c1.96,0,3.54-1.59,3.54-3.54s-1.59-3.54-3.54-3.54-3.54,1.59-3.54,3.54,1.59,3.54,3.54,3.54Z"/>
  <path class="st2" d="M1465.28,922.03c0-2.45-1.98-4.43-4.43-4.43s-4.43,1.98-4.43,4.43,1.98,4.43,4.43,4.43,4.43-1.98,4.43-4.43Z"/>
  <circle class="st2" cx="1541.33" cy="1000" r="11.87"/>
  <path class="st2" d="M1535.02,1078.99c0-3.43-2.78-6.2-6.2-6.2s-6.2,2.78-6.2,6.2,2.78,6.2,6.2,6.2,6.2-2.78,6.2-6.2Z"/>
  <path class="st2" d="M1499.24,1150.24c0-3.72-3.02-6.73-6.73-6.73s-6.73,3.01-6.73,6.73,3.01,6.73,6.73,6.73,6.73-3.01,6.73-6.73Z"/>
  <circle class="st2" cx="1435.96" cy="1206.79" r="5.85"/>
  <path class="st2" d="M1364.7,1236.19c-3.82,0-6.91,3.09-6.91,6.91s3.09,6.91,6.91,6.91,6.91-3.09,6.91-6.91-3.09-6.91-6.91-6.91Z"/>
  <path class="st2" d="M1285.71,1260.93c2.94,0,5.32-2.38,5.32-5.32s-2.38-5.32-5.32-5.32-5.32,2.38-5.32,5.32,2.38,5.32,5.32,5.32Z"/>
  <path class="st2" d="M1206.73,1251.43c4.6,0,8.33-3.73,8.33-8.33s-3.73-8.33-8.33-8.33-8.33,3.73-8.33,8.33,3.73,8.33,8.33,8.33Z"/>
  <path class="st2" d="M1135.47,1214.59c4.31,0,7.8-3.49,7.8-7.8s-3.49-7.8-7.8-7.8-7.8,3.49-7.8,7.8,3.49,7.8,7.8,7.8Z"/>
  <path class="st2" d="M1084.95,1150.24c0-3.33-2.7-6.02-6.02-6.02s-6.02,2.7-6.02,6.02,2.7,6.02,6.02,6.02,6.02-2.7,6.02-6.02Z"/>
  <path class="st2" d="M1028.79,1078.99c0,7.63,6.19,13.82,13.82,13.82s13.82-6.19,13.82-13.82-6.19-13.82-13.82-13.82-13.82,6.19-13.82,13.82Z"/>
  <circle class="st2" cx="1030.1" cy="1000" r="7.09" transform="translate(-121.99 1856.62) rotate(-80.78)"/>
  <circle class="st2" cx="1042.61" cy="921.01" r="11.34"/>
  <path class="st2" d="M1078.92,838.24c-6.36,0-11.52,5.16-11.52,11.52s5.16,11.52,11.52,11.52,11.52-5.16,11.52-11.52-5.16-11.52-11.52-11.52Z"/>
  <path class="st2" d="M1143.09,793.21c0-4.21-3.41-7.62-7.62-7.62s-7.62,3.41-7.62,7.62,3.41,7.62,7.62,7.62,7.62-3.41,7.62-7.62Z"/>
  <path class="st2" d="M1206.73,765.58c4.8,0,8.68-3.89,8.68-8.68s-3.89-8.68-8.68-8.68-8.68,3.89-8.68,8.68,3.89,8.68,8.68,8.68Z"/>
  <path class="st2" d="M1285.71,752.72c4.6,0,8.33-3.73,8.33-8.33s-3.73-8.33-8.33-8.33-8.33,3.73-8.33,8.33,3.73,8.33,8.33,8.33Z"/>
  <circle class="st2" cx="1364.7" cy="756.9" r="5.67"/>
  <path class="st2" d="M1435.96,799.05c3.23,0,5.85-2.62,5.85-5.85s-2.62-5.85-5.85-5.85-5.85,2.62-5.85,5.85,2.62,5.85,5.85,5.85Z"/>
  <path class="st2" d="M1492.51,854.19c2.45,0,4.43-1.98,4.43-4.43s-1.98-4.43-4.43-4.43-4.43,1.98-4.43,4.43,1.98,4.43,4.43,4.43Z"/>
  <circle class="st2" cx="1528.82" cy="921.01" r="7.26"/>
  <circle class="st2" cx="1605.23" cy="1000" r="4.25"/>
  <circle class="st2" cx="1595.19" cy="1079.46" r="7.44"/>
  <path class="st2" d="M1565.71,1164.56c5.87,0,10.63-4.76,10.63-10.63s-4.76-10.63-10.63-10.63-10.63,4.76-10.63,10.63,4.76,10.63,10.63,10.63Z"/>
  <path class="st2" d="M1536.71,1218.72c0-9.98-8.09-18.07-18.07-18.07s-18.07,8.09-18.07,18.07,8.09,18.07,18.07,18.07,18.07-8.09,18.07-18.07Z"/>
  <circle class="st2" cx="1456.92" cy="1269.77" r="8.51"/>
  <circle class="st2" cx="1384.45" cy="1303.88" r="4.78"/>
  <path class="st2" d="M1311.98,1318.88c0-3.43-2.78-6.2-6.2-6.2s-6.2,2.78-6.2,6.2,2.78,6.2,6.2,6.2,6.2-2.78,6.2-6.2Z"/>
  <path class="st2" d="M1225.84,1307.3c-3.62,0-6.56,2.94-6.56,6.56s2.94,6.56,6.56,6.56,6.56-2.94,6.56-6.56-2.94-6.56-6.56-6.56Z"/>
  <path class="st2" d="M1149.67,1303.46c7.93,0,14.35-6.43,14.35-14.35s-6.43-14.35-14.35-14.35-14.35,6.43-14.35,14.35,6.43,14.35,14.35,14.35Z"/>
  <circle class="st2" cx="1082.05" cy="1246.19" r="8.86"/>
  <circle class="st2" cx="1027.22" cy="1187.81" r="10.81" transform="translate(-376.36 483.52) rotate(-22.5)"/>
  <path class="st2" d="M1004.76,1117.62c0-8.91-7.22-16.13-16.13-16.13s-16.13,7.22-16.13,16.13,7.22,16.13,16.13,16.13,16.13-7.22,16.13-16.13Z"/>
  <path class="st2" d="M968.72,1049.79c5.38,0,9.75-4.36,9.75-9.75s-4.36-9.75-9.75-9.75-9.75,4.36-9.75,9.75,4.36,9.75,9.75,9.75Z"/>
  <path class="st2" d="M959.86,959.95c0,4.89,3.97,8.86,8.86,8.86s8.86-3.97,8.86-8.86-3.97-8.86-8.86-8.86-8.86,3.97-8.86,8.86Z"/>
  <path class="st2" d="M988.64,862.89c-10.76,0-19.49,8.73-19.49,19.49s8.73,19.49,19.49,19.49,19.49-8.73,19.49-19.49-8.73-19.49-19.49-19.49Z"/>
  <circle class="st2" cx="1027.22" cy="812.19" r="10.99"/>
  <path class="st2" d="M1082.05,761.96c4.5,0,8.15-3.65,8.15-8.15s-3.65-8.15-8.15-8.15-8.15,3.65-8.15,8.15,3.65,8.15,8.15,8.15Z"/>
  <path class="st2" d="M1149.67,725.25c7.93,0,14.35-6.43,14.35-14.35s-6.43-14.35-14.35-14.35-14.35,6.43-14.35,14.35,6.43,14.35,14.35,14.35Z"/>
  <path class="st2" d="M1225.84,693.06c3.82,0,6.91-3.09,6.91-6.91s-3.09-6.91-6.91-6.91-6.91,3.09-6.91,6.91,3.09,6.91,6.91,6.91Z"/>
  <circle class="st2" cx="1305.78" cy="681.12" r="8.51"/>
  <circle class="st2" cx="1384.45" cy="696.12" r="3.37"/>
  <circle class="st2" cx="1456.92" cy="730.23" r="3.72"/>
  <circle class="st2" cx="1518.63" cy="781.28" r="6.2"/>
  <path class="st2" d="M1565.71,851.57c3.03,0,5.49-2.46,5.49-5.49s-2.46-5.49-5.49-5.49-5.49,2.46-5.49,5.49,2.46,5.49,5.49,5.49Z"/>
  <path class="st2" d="M1595.19,915.22c-2.94,0-5.32,2.38-5.32,5.32s2.38,5.32,5.32,5.32,5.32-2.38,5.32-5.32-2.38-5.32-5.32-5.32Z"/>
  <path class="st2" d="M1669.13,994.68c-2.94,0-5.32,2.38-5.32,5.32s2.38,5.32,5.32,5.32,5.32-2.38,5.32-5.32-2.38-5.32-5.32-5.32Z"/>
  <path class="st2" d="M1649.24,1079.72c0,6.36,5.16,11.52,11.52,11.52s11.52-5.16,11.52-11.52-5.16-11.52-11.52-11.52-11.52,5.16-11.52,11.52Z"/>
  <path class="st2" d="M1625.35,1155.95c0,5.87,4.76,10.63,10.63,10.63s10.63-4.76,10.63-10.63-4.76-10.63-10.63-10.63-10.63,4.76-10.63,10.63Z"/>
  <path class="st2" d="M1595.91,1237.06c6.46,0,11.7-5.24,11.7-11.7s-5.24-11.7-11.7-11.7-11.69,5.24-11.69,11.7,5.24,11.7,11.69,11.7Z"/>
  <path class="st2" d="M1551.49,1284.93c0-5.09-4.13-9.21-9.21-9.21s-9.21,4.13-9.21,9.21,4.13,9.21,9.21,9.21,9.21-4.13,9.21-9.21Z"/>
  <circle class="st2" cx="1477.42" cy="1332.05" r="7.62"/>
  <path class="st2" d="M1404.2,1373.33c4.8,0,8.68-3.89,8.68-8.68s-3.89-8.68-8.68-8.68-8.68,3.89-8.68,8.68,3.89,8.68,8.68,8.68Z"/>
  <path class="st2" d="M1325.79,1394.43c7.24,0,13.11-5.87,13.11-13.11s-5.87-13.11-13.11-13.11-13.11,5.87-13.11,13.11,5.87,13.11,13.11,13.11Z"/>
  <path class="st2" d="M1245.64,1388.05c3.72,0,6.73-3.02,6.73-6.73s-3.01-6.73-6.73-6.73-6.73,3.01-6.73,6.73,3.02,6.73,6.73,6.73Z"/>
  <path class="st2" d="M1157.66,1364.65c0,5.28,4.28,9.57,9.57,9.57s9.57-4.28,9.57-9.57-4.28-9.57-9.57-9.57-9.57,4.28-9.57,9.57Z"/>
  <circle class="st2" cx="1094.01" cy="1332.05" r="11.34"/>
  <circle class="st2" cx="1029.15" cy="1284.93" r="11.87"/>
  <path class="st2" d="M975.52,1211.01c-7.93,0-14.35,6.43-14.35,14.35s6.43,14.35,14.35,14.35,14.35-6.43,14.35-14.35-6.43-14.35-14.35-14.35Z"/>
  <circle class="st2" cx="935.45" cy="1155.95" r="9.04"/>
  <path class="st2" d="M910.68,1071.92c-4.31,0-7.8,3.49-7.8,7.8s3.49,7.8,7.8,7.8,7.8-3.49,7.8-7.8-3.49-7.8-7.8-7.8Z"/>
  <path class="st2" d="M902.3,989.72c-5.68,0-10.28,4.6-10.28,10.28s4.6,10.28,10.28,10.28,10.28-4.6,10.28-10.28-4.6-10.28-10.28-10.28Z"/>
  <path class="st2" d="M895.61,920.28c0,8.32,6.74,15.06,15.06,15.06s15.06-6.74,15.06-15.06-6.74-15.06-15.06-15.06-15.06,6.74-15.06,15.06Z"/>
  <path class="st2" d="M935.45,856.63c6.95,0,12.58-5.63,12.58-12.58s-5.63-12.58-12.58-12.58-12.58,5.63-12.58,12.58,5.63,12.58,12.58,12.58Z"/>
  <path class="st2" d="M982.43,774.63c0-3.82-3.09-6.91-6.91-6.91s-6.91,3.09-6.91,6.91,3.09,6.91,6.91,6.91,6.91-3.09,6.91-6.91Z"/>
  <path class="st2" d="M1029.16,722.51c4.11,0,7.44-3.33,7.44-7.44s-3.33-7.44-7.44-7.44-7.44,3.33-7.44,7.44,3.33,7.44,7.44,7.44Z"/>
  <path class="st2" d="M1086.39,667.95c0,4.21,3.41,7.62,7.62,7.62s7.62-3.41,7.62-7.62-3.41-7.62-7.62-7.62-7.62,3.41-7.62,7.62Z"/>
  <circle class="st2" cx="1167.23" cy="635.35" r="13.64"/>
  <path class="st2" d="M1238.9,618.68c0,3.72,3.02,6.73,6.73,6.73s6.73-3.01,6.73-6.73-3.01-6.73-6.73-6.73-6.73,3.01-6.73,6.73Z"/>
  <path class="st2" d="M1325.79,622.23c1.96,0,3.54-1.59,3.54-3.54s-1.59-3.54-3.54-3.54-3.54,1.59-3.54,3.54,1.59,3.54,3.54,3.54Z"/>
  <circle class="st2" cx="1404.2" cy="635.35" r="4.25"/>
  <path class="st2" d="M1477.42,671.14c1.76,0,3.19-1.43,3.19-3.19s-1.43-3.19-3.19-3.19-3.19,1.43-3.19,3.19,1.43,3.19,3.19,3.19Z"/>
  <path class="st2" d="M1542.27,710.64c-2.45,0-4.43,1.98-4.43,4.43s1.98,4.43,4.43,4.43,4.43-1.98,4.43-4.43-1.98-4.43-4.43-4.43Z"/>
  <circle class="st2" cx="1595.91" cy="774.63" r="4.25"/>
  <circle class="st2" cx="1635.98" cy="844.05" r="4.78"/>
  <path class="st2" d="M1655.44,920.28c0,2.94,2.38,5.32,5.32,5.32s5.32-2.38,5.32-5.32-2.38-5.32-5.32-5.32-5.32,2.38-5.32,5.32Z"/>
  <path class="st2" d="M1725.77,1000c0,4.01,3.25,7.26,7.26,7.26s7.26-3.25,7.26-7.26-3.25-7.27-7.26-7.27-7.26,3.25-7.26,7.27Z"/>
  <path class="st2" d="M1717.52,1079.87c0,4.6,3.73,8.33,8.33,8.33s8.33-3.73,8.33-8.33-3.73-8.33-8.33-8.33-8.33,3.73-8.33,8.33Z"/>
  <path class="st2" d="M1693.7,1157.18c0,5.97,4.84,10.81,10.81,10.81s10.81-4.84,10.81-10.81-4.84-10.81-10.81-10.81-10.81,4.84-10.81,10.81Z"/>
  <path class="st2" d="M1669.72,1217.91c-6.36,0-11.52,5.16-11.52,11.52s5.16,11.52,11.52,11.52,11.52-5.16,11.52-11.52-5.16-11.52-11.52-11.52Z"/>
  <path class="st2" d="M1622.58,1306.36c6.65,0,12.05-5.39,12.05-12.05s-5.39-12.05-12.05-12.05-12.05,5.4-12.05,12.05,5.39,12.05,12.05,12.05Z"/>
  <path class="st2" d="M1564.61,1361.78c6.66,0,12.05-5.39,12.05-12.05s-5.39-12.05-12.05-12.05-12.05,5.4-12.05,12.05,5.39,12.05,12.05,12.05Z"/>
  <path class="st2" d="M1497.69,1403.12c5.09,0,9.21-4.13,9.21-9.21s-4.13-9.21-9.21-9.21-9.21,4.13-9.21,9.21,4.13,9.21,9.21,9.21Z"/>
  <path class="st2" d="M1423.94,1439.25c7.63,0,13.82-6.19,13.82-13.82s-6.19-13.82-13.82-13.82-13.82,6.19-13.82,13.82,6.19,13.82,13.82,13.82Z"/>
  <circle class="st2" cx="1345.76" cy="1443.27" r="9.75"/>
  <path class="st2" d="M1265.65,1456.62c5.38,0,9.75-4.36,9.75-9.75s-4.36-9.75-9.75-9.75-9.75,4.36-9.75,9.75,4.36,9.75,9.75,9.75Z"/>
  <path class="st2" d="M1186.18,1444.79c4.8,0,8.68-3.89,8.68-8.68s-3.89-8.68-8.68-8.68-8.68,3.89-8.68,8.68,3.89,8.68,8.68,8.68Z"/>
  <path class="st2" d="M1109.91,1400.87c-5.77,0-10.45,4.68-10.45,10.46s4.68,10.45,10.45,10.45,10.45-4.68,10.45-10.45-4.68-10.46-10.45-10.46Z"/>
  <path class="st2" d="M1051.51,1373.32c0-6.75-5.47-12.23-12.23-12.23s-12.23,5.47-12.23,12.23,5.47,12.23,12.23,12.23,12.23-5.47,12.23-12.23Z"/>
  <path class="st2" d="M976.59,1312.87c-5.77,0-10.46,4.68-10.46,10.45s4.68,10.45,10.46,10.45,10.45-4.68,10.45-10.45-4.68-10.45-10.45-10.45Z"/>
  <path class="st2" d="M911.95,1262.93c0,6.56,5.32,11.87,11.87,11.87s11.87-5.32,11.87-11.87-5.32-11.87-11.87-11.87-11.87,5.32-11.87,11.87Z"/>
  <circle class="st2" cx="882.69" cy="1194.08" r="9.92"/>
  <circle class="st2" cx="854.51" cy="1119" r="7.09"/>
  <path class="st2" d="M829.03,1040.1c0,6.16,5,11.16,11.16,11.16s11.16-5,11.16-11.16-5-11.16-11.16-11.16-11.16,5-11.16,11.16Z"/>
  <path class="st2" d="M840.2,954.05c-3.23,0-5.85,2.62-5.85,5.85s2.62,5.85,5.85,5.85,5.85-2.62,5.85-5.85-2.62-5.85-5.85-5.85Z"/>
  <path class="st2" d="M849.73,881c0,2.64,2.14,4.78,4.78,4.78s4.78-2.14,4.78-4.78-2.14-4.78-4.78-4.78-4.78,2.14-4.78,4.78Z"/>
  <path class="st2" d="M888.19,805.92c0-3.03-2.46-5.49-5.49-5.49s-5.49,2.46-5.49,5.49,2.46,5.49,5.49,5.49,5.49-2.46,5.49-5.49Z"/>
  <path class="st2" d="M923.83,743.45c3.52,0,6.38-2.86,6.38-6.38s-2.86-6.38-6.38-6.38-6.38,2.86-6.38,6.38,2.86,6.38,6.38,6.38Z"/>
  <path class="st2" d="M976.59,669.06c-4.21,0-7.62,3.41-7.62,7.62s3.41,7.62,7.62,7.62,7.62-3.41,7.62-7.62-3.41-7.62-7.62-7.62Z"/>
  <circle class="st2" cx="1039.29" cy="626.68" r="8.15"/>
  <circle class="st2" cx="1109.91" cy="588.68" r="10.1"/>
  <circle class="st2" cx="1186.18" cy="563.9" r="8.86"/>
  <path class="st2" d="M1265.65,560.4c4.01,0,7.26-3.25,7.26-7.26s-3.25-7.27-7.26-7.27-7.27,3.25-7.27,7.27,3.25,7.26,7.27,7.26Z"/>
  <path class="st2" d="M1345.76,559.21c1.37,0,2.48-1.11,2.48-2.48s-1.11-2.48-2.48-2.48-2.48,1.11-2.48,2.48,1.11,2.48,2.48,2.48Z"/>
  <path class="st2" d="M1423.94,578.29c2.06,0,3.72-1.67,3.72-3.72s-1.67-3.72-3.72-3.72-3.72,1.67-3.72,3.72,1.67,3.72,3.72,3.72Z"/>
  <path class="st2" d="M1497.69,610.17c2.25,0,4.08-1.82,4.08-4.08s-1.82-4.08-4.08-4.08-4.08,1.82-4.08,4.08,1.82,4.08,4.08,4.08Z"/>
  <path class="st2" d="M1561.07,650.27c0,1.96,1.59,3.54,3.54,3.54s3.54-1.59,3.54-3.54-1.59-3.54-3.54-3.54-3.54,1.59-3.54,3.54Z"/>
  <path class="st2" d="M1618.5,705.69c0,2.25,1.82,4.08,4.08,4.08s4.08-1.83,4.08-4.08-1.82-4.08-4.08-4.08-4.08,1.83-4.08,4.08Z"/>
  <path class="st2" d="M1662.98,770.57c0,3.72,3.02,6.73,6.73,6.73s6.73-3.01,6.73-6.73-3.01-6.73-6.73-6.73-6.73,3.01-6.73,6.73Z"/>
  <circle class="st2" cx="1704.51" cy="842.82" r="4.25"/>
  <path class="st2" d="M1720.88,920.13c0,2.74,2.22,4.96,4.96,4.96s4.96-2.22,4.96-4.96-2.22-4.96-4.96-4.96-4.96,2.22-4.96,4.96Z"/>
  <circle class="st2" cx="1796.94" cy="1000" r="5.14"/>
  <path class="st2" d="M1782.49,1079.97c0,4.5,3.65,8.15,8.15,8.15s8.15-3.65,8.15-8.15-3.65-8.15-8.15-8.15-8.15,3.65-8.15,8.15Z"/>
  <path class="st0" d="M1763.59,1157.98c0,4.6,3.73,8.33,8.33,8.33s8.33-3.73,8.33-8.33-3.73-8.33-8.33-8.33-8.33,3.73-8.33,8.33Z"/>
  <path class="st0" d="M1741.22,1218.45c-7.54,0-13.64,6.11-13.64,13.64s6.11,13.64,13.64,13.64,13.64-6.11,13.64-13.64-6.11-13.64-13.64-13.64Z"/>
  <path class="st2" d="M1685.48,1300.49c0,7.63,6.19,13.82,13.82,13.82s13.82-6.19,13.82-13.82-6.19-13.82-13.82-13.82-13.82,6.19-13.82,13.82Z"/>
  <path class="st2" d="M1647.2,1378.68c9.49,0,17.19-7.7,17.19-17.19s-7.7-17.19-17.19-17.19-17.19,7.7-17.19,17.19,7.7,17.19,17.19,17.19Z"/>
  <path class="st2" d="M1573.27,1413.59c0,7.14,5.79,12.94,12.94,12.94s12.94-5.79,12.94-12.94-5.79-12.94-12.94-12.94-12.94,5.79-12.94,12.94Z"/>
  <circle class="st2" cx="1517.8" cy="1455.5" r="8.51"/>
  <path class="st2" d="M1443.69,1497.9c6.46,0,11.69-5.24,11.69-11.69s-5.24-11.7-11.69-11.7-11.7,5.24-11.7,11.7,5.24,11.69,11.7,11.69Z"/>
  <path class="st2" d="M1357,1504.93c0,4.8,3.89,8.68,8.68,8.68s8.68-3.89,8.68-8.68-3.89-8.68-8.68-8.68-8.68,3.89-8.68,8.68Z"/>
  <path class="st1" d="M1285.71,1520.79c5.28,0,9.57-4.28,9.57-9.57s-4.28-9.57-9.57-9.57-9.57,4.28-9.57,9.57,4.28,9.57,9.57,9.57Z"/>
  <path class="st2" d="M1205.74,1514.14c5.09,0,9.21-4.13,9.21-9.21s-4.13-9.21-9.21-9.21-9.21,4.13-9.21,9.21,4.13,9.21,9.21,9.21Z"/>
  <path class="st2" d="M1127.74,1495.95c5.38,0,9.75-4.36,9.75-9.75s-4.36-9.75-9.75-9.75-9.75,4.36-9.75,9.75,4.36,9.75,9.75,9.75Z"/>
  <path class="st2" d="M1043.52,1455.5c0,5.58,4.52,10.1,10.1,10.1s10.1-4.52,10.1-10.1-4.52-10.1-10.1-10.1-10.1,4.52-10.1,10.1Z"/>
  <circle class="st2" cx="985.23" cy="1413.59" r="9.92"/>
  <path class="st2" d="M935.39,1361.49c0-6.17-5-11.16-11.16-11.16s-11.16,5-11.16,11.16,5,11.16,11.16,11.16,11.16-5,11.16-11.16Z"/>
  <path class="st2" d="M861.14,1300.49c0,6.07,4.92,10.99,10.99,10.99s10.99-4.92,10.99-10.99-4.92-10.99-10.99-10.99-10.99,4.92-10.99,10.99Z"/>
  <path class="st2" d="M830.21,1242.19c5.58,0,10.1-4.52,10.1-10.1s-4.52-10.1-10.1-10.1-10.1,4.52-10.1,10.1,4.52,10.1,10.1,10.1Z"/>
  <path class="st2" d="M793.49,1157.98c0,3.33,2.7,6.02,6.02,6.02s6.02-2.7,6.02-6.02-2.7-6.02-6.02-6.02-6.02,2.7-6.02,6.02Z"/>
  <path class="st2" d="M775.47,1079.97c0,2.94,2.38,5.32,5.32,5.32s5.32-2.38,5.32-5.32-2.38-5.32-5.32-5.32-5.32,2.38-5.32,5.32Z"/>
  <path class="st2" d="M777.5,1000c0-1.66-1.35-3.01-3.01-3.01s-3.01,1.35-3.01,3.01,1.35,3.01,3.01,3.01,3.01-1.35,3.01-3.01Z"/>
  <path class="st2" d="M783.44,920.03c0-1.47-1.19-2.66-2.66-2.66s-2.66,1.19-2.66,2.66,1.19,2.66,2.66,2.66,2.66-1.19,2.66-2.66Z"/>
  <circle class="st2" cx="799.51" cy="842.02" r="3.19"/>
  <path class="st2" d="M830.21,771.99c2.25,0,4.08-1.82,4.08-4.08s-1.82-4.08-4.08-4.08-4.08,1.82-4.08,4.08,1.82,4.08,4.08,4.08Z"/>
  <path class="st2" d="M872.13,694.73c-2.64,0-4.78,2.14-4.78,4.78s2.14,4.78,4.78,4.78,4.78-2.14,4.78-4.78-2.14-4.78-4.78-4.78Z"/>
  <path class="st2" d="M924.23,645.42c3.82,0,6.91-3.09,6.91-6.91s-3.09-6.91-6.91-6.91-6.91,3.09-6.91,6.91,3.09,6.91,6.91,6.91Z"/>
  <path class="st2" d="M977.43,586.41c0,4.31,3.49,7.8,7.8,7.8s7.8-3.49,7.8-7.8-3.49-7.8-7.8-7.8-7.8,3.49-7.8,7.8Z"/>
  <circle class="st2" cx="1053.62" cy="544.5" r="6.02"/>
  <path class="st2" d="M1127.74,509.72c-2.25,0-4.08,1.82-4.08,4.08s1.82,4.08,4.08,4.08,4.08-1.82,4.08-4.08-1.82-4.08-4.08-4.08Z"/>
  <path class="st2" d="M1205.74,500.21c2.84,0,5.14-2.3,5.14-5.14s-2.3-5.14-5.14-5.14-5.14,2.3-5.14,5.14,2.3,5.14,5.14,5.14Z"/>
  <circle class="st2" cx="1285.71" cy="488.78" r="6.02"/>
  <path class="st2" d="M1365.69,493.12c-1.08,0-1.95.87-1.95,1.95s.87,1.95,1.95,1.95,1.95-.87,1.95-1.95-.87-1.95-1.95-1.95Z"/>
  <path class="st2" d="M1443.69,516.46c1.47,0,2.66-1.19,2.66-2.66s-1.19-2.66-2.66-2.66-2.66,1.19-2.66,2.66,1.19,2.66,2.66,2.66Z"/>
  <path class="st2" d="M1517.8,549.81c2.94,0,5.32-2.38,5.32-5.32s-2.38-5.32-5.32-5.32-5.32,2.38-5.32,5.32,2.38,5.32,5.32,5.32Z"/>
  <path class="st2" d="M1586.2,573.83c-6.95,0-12.58,5.63-12.58,12.58s5.63,12.58,12.58,12.58,12.58-5.63,12.58-12.58-5.63-12.58-12.58-12.58Z"/>
  <path class="st2" d="M1647.2,635.32c-1.76,0-3.19,1.43-3.19,3.19s1.43,3.19,3.19,3.19,3.19-1.43,3.19-3.19-1.43-3.19-3.19-3.19Z"/>
  <circle class="st2" cx="1699.3" cy="699.51" r="5.67"/>
  <path class="st2" d="M1741.22,775.53c4.21,0,7.62-3.41,7.62-7.62s-3.41-7.62-7.62-7.62-7.62,3.41-7.62,7.62,3.41,7.62,7.62,7.62Z"/>
  <circle class="st2" cx="1771.92" cy="842.02" r="4.61"/>
  <circle class="st2" cx="1790.64" cy="920.03" r="7.09"/>
  <path class="st2" d="M1860.84,993.27c-3.72,0-6.73,3.02-6.73,6.73s3.02,6.73,6.73,6.73,6.73-3.01,6.73-6.73-3.01-6.73-6.73-6.73Z"/>
  <path class="st2" d="M1866.76,1080.04c0-6.36-5.16-11.52-11.52-11.52s-11.52,5.16-11.52,11.52,5.16,11.52,11.52,11.52,11.52-5.16,11.52-11.52Z"/>
  <path class="st0" d="M1827.93,1158.53c0,5.87,4.76,10.63,10.63,10.63s10.63-4.76,10.63-10.63-4.76-10.63-10.63-10.63-10.63,4.76-10.63,10.63Z"/>
  <path class="st0" d="M1799.42,1233.92c0,6.46,5.24,11.7,11.7,11.7s11.69-5.24,11.69-11.7-5.24-11.69-11.69-11.69-11.7,5.24-11.7,11.69Z"/>
  <path class="st0" d="M1773.45,1314.87c5.58,0,10.1-4.52,10.1-10.1s-4.52-10.1-10.1-10.1-10.1,4.52-10.1,10.1,4.52,10.1,10.1,10.1Z"/>
  <path class="st2" d="M1710.34,1369.68c0,8.81,7.14,15.95,15.95,15.95s15.95-7.14,15.95-15.95-7.14-15.95-15.95-15.95-15.95,7.14-15.95,15.95Z"/>
  <path class="st2" d="M1670.55,1406.31c-11.65,0-21.09,9.44-21.09,21.09s9.44,21.09,21.09,21.09,21.09-9.44,21.09-21.09-9.44-21.09-21.09-21.09Z"/>
  <path class="st2" d="M1607.32,1489.38c6.95,0,12.58-5.63,12.58-12.58s-5.63-12.58-12.58-12.58-12.58,5.63-12.58,12.58,5.63,12.58,12.58,12.58Z"/>
  <path class="st2" d="M1537.83,1525.25c4.6,0,8.33-3.73,8.33-8.33s-3.73-8.33-8.33-8.33-8.33,3.73-8.33,8.33,3.73,8.33,8.33,8.33Z"/>
  <path class="st2" d="M1463.44,1541.13c-3.23,0-5.85,2.62-5.85,5.85s2.62,5.85,5.85,5.85,5.85-2.62,5.85-5.85-2.62-5.85-5.85-5.85Z"/>
  <circle class="st2" cx="1385.58" cy="1566.39" r="5.67"/>
  <path class="st1" d="M1283.81,1574.77c0,12.14,9.84,21.97,21.97,21.97s21.97-9.84,21.97-21.97-9.84-21.97-21.97-21.97-21.97,9.84-21.97,21.97Z"/>
  <circle class="st1" cx="1225.6" cy="1571.97" r="13.64"/>
  <circle class="st1" cx="1146.58" cy="1558.04" r="9.04"/>
  <path class="st1" d="M1060.52,1533.25c0,5.38,4.36,9.75,9.75,9.75s9.75-4.36,9.75-9.75-4.36-9.75-9.75-9.75-9.75,4.36-9.75,9.75Z"/>
  <path class="st2" d="M998.15,1508.88c5.97,0,10.81-4.84,10.81-10.81s-4.84-10.81-10.81-10.81-10.81,4.84-10.81,10.81,4.84,10.81,10.81,10.81Z"/>
  <circle class="st2" cx="931.63" cy="1453.2" r="9.39"/>
  <path class="st2" d="M872,1413.34c7.63,0,13.82-6.19,13.82-13.82s-6.19-13.82-13.82-13.82-13.82,6.19-13.82,13.82,6.19,13.82,13.82,13.82Z"/>
  <path class="st2" d="M820.43,1350.1c6.65,0,12.05-5.4,12.05-12.05s-5.39-12.05-12.05-12.05-12.05,5.39-12.05,12.05,5.4,12.05,12.05,12.05Z"/>
  <path class="st2" d="M777.91,1280.11c5.58,0,10.1-4.52,10.1-10.1s-4.52-10.1-10.1-10.1-10.1,4.52-10.1,10.1,4.52,10.1,10.1,10.1Z"/>
  <circle class="st2" cx="745.27" cy="1196.7" r="6.73"/>
  <path class="st2" d="M723.16,1123.12c1.96,0,3.54-1.59,3.54-3.54s-1.59-3.54-3.54-3.54-3.54,1.59-3.54,3.54,1.59,3.54,3.54,3.54Z"/>
  <path class="st2" d="M711.99,1042.78c1.47,0,2.66-1.19,2.66-2.66s-1.19-2.66-2.66-2.66-2.66,1.19-2.66,2.66,1.19,2.66,2.66,2.66Z"/>
  <path class="st2" d="M711.99,962.01c1.17,0,2.13-.95,2.13-2.13s-.95-2.13-2.13-2.13-2.13.95-2.13,2.13.95,2.13,2.13,2.13Z"/>
  <path class="st2" d="M721.03,880.42c0,1.17.95,2.13,2.13,2.13s2.13-.95,2.13-2.13-.95-2.13-2.13-2.13-2.13.95-2.13,2.13Z"/>
  <circle class="st2" cx="745.27" cy="803.3" r="2.3"/>
  <circle class="st2" cx="777.91" cy="730" r="2.84"/>
  <path class="st2" d="M824.86,661.95c0-2.45-1.98-4.43-4.43-4.43s-4.43,1.98-4.43,4.43,1.98,4.43,4.43,4.43,4.43-1.98,4.43-4.43Z"/>
  <path class="st2" d="M872,595.52c-2.74,0-4.96,2.22-4.96,4.96s2.22,4.96,4.96,4.96,4.96-2.22,4.96-4.96-2.22-4.96-4.96-4.96Z"/>
  <path class="st2" d="M931.63,563.1c9,0,16.3-7.3,16.3-16.3s-7.3-16.3-16.3-16.3-16.3,7.3-16.3,16.3,7.3,16.3,16.3,16.3Z"/>
  <circle class="st2" cx="998.15" cy="501.93" r="9.39"/>
  <path class="st2" d="M1065.31,466.75c0,2.74,2.22,4.96,4.96,4.96s4.96-2.22,4.96-4.96-2.22-4.96-4.96-4.96-4.96,2.22-4.96,4.96Z"/>
  <circle class="st2" cx="1146.58" cy="441.96" r="5.32"/>
  <path class="st2" d="M1225.6,431.57c1.96,0,3.54-1.59,3.54-3.54s-1.59-3.54-3.54-3.54-3.54,1.59-3.54,3.54,1.59,3.54,3.54,3.54Z"/>
  <path class="st2" d="M1305.79,421.68c-1.96,0-3.54,1.59-3.54,3.54s1.59,3.54,3.54,3.54,3.54-1.59,3.54-3.54-1.59-3.54-3.54-3.54Z"/>
  <path class="st2" d="M1385.58,438.22c2.55,0,4.61-2.06,4.61-4.61s-2.06-4.61-4.61-4.61-4.61,2.06-4.61,4.61,2.06,4.61,4.61,4.61Z"/>
  <circle class="st2" cx="1463.44" cy="453.02" r="3.9"/>
  <circle class="st2" cx="1537.83" cy="483.08" r="2.3"/>
  <path class="st2" d="M1603.6,523.2c0,2.06,1.67,3.72,3.72,3.72s3.72-1.67,3.72-3.72-1.67-3.72-3.72-3.72-3.72,1.67-3.72,3.72Z"/>
  <path class="st2" d="M1674.45,572.6c0-2.15-1.75-3.9-3.9-3.9s-3.9,1.75-3.9,3.9,1.75,3.9,3.9,3.9,3.9-1.75,3.9-3.9Z"/>
  <path class="st2" d="M1729.65,630.32c0-1.86-1.51-3.37-3.37-3.37s-3.37,1.51-3.37,3.37,1.51,3.37,3.37,3.37,3.37-1.51,3.37-3.37Z"/>
  <path class="st2" d="M1773.45,700.55c2.94,0,5.32-2.38,5.32-5.32s-2.38-5.32-5.32-5.32-5.32,2.38-5.32,5.32,2.38,5.32,5.32,5.32Z"/>
  <path class="st2" d="M1811.12,772.28c3.43,0,6.2-2.78,6.2-6.2s-2.78-6.2-6.2-6.2-6.2,2.78-6.2,6.2,2.78,6.2,6.2,6.2Z"/>
  <circle class="st2" cx="1838.56" cy="841.47" r="5.14"/>
  <path class="st2" d="M1855.24,913.22c-3.72,0-6.73,3.02-6.73,6.73s3.02,6.73,6.73,6.73,6.73-3.02,6.73-6.73-3.01-6.73-6.73-6.73Z"/>
  <path class="st2" d="M1917.48,1000c0,4.01,3.25,7.26,7.26,7.26s7.27-3.25,7.27-7.26-3.25-7.27-7.27-7.27-7.26,3.25-7.26,7.27Z"/>
  <circle class="st2" cx="1919.7" cy="1080.09" r="11.87"/>
  <circle class="st0" cx="1904.67" cy="1158.92" r="11.34"/>
  <path class="st0" d="M1879.87,1218.41c-9.3,0-16.83,7.54-16.83,16.83s7.54,16.83,16.83,16.83,16.83-7.54,16.83-16.83-7.54-16.83-16.83-16.83Z"/>
  <path class="st0" d="M1831.35,1307.85c0,7.93,6.43,14.35,14.35,14.35s14.35-6.43,14.35-14.35-6.43-14.35-14.35-14.35-14.35,6.43-14.35,14.35Z"/>
  <circle class="st0" cx="1802.7" cy="1375.61" r="12.76"/>
  <circle class="st0" cx="1751.55" cy="1437.44" r="19.31"/>
  <circle class="st2" cx="1693.05" cy="1492.38" r="14.53"/>
  <path class="st2" d="M1641.24,1539.55c0-7.24-5.87-13.11-13.11-13.11s-13.11,5.87-13.11,13.11,5.87,13.11,13.11,13.11,13.11-5.87,13.11-13.11Z"/>
  <circle class="st2" cx="1557.8" cy="1578.21" r="10.45"/>
  <circle class="st2" cx="1483.19" cy="1607.75" r="7.09"/>
  <path class="st2" d="M1405.46,1622.39c-2.94,0-5.32,2.38-5.32,5.32s2.38,5.32,5.32,5.32,5.32-2.38,5.32-5.32-2.38-5.32-5.32-5.32Z"/>
  <circle class="st2" cx="1325.84" cy="1637.77" r="9.75"/>
  <circle class="st1" cx="1245.59" cy="1637.77" r="10.45"/>
  <circle class="st1" cx="1165.97" cy="1627.71" r="10.81"/>
  <path class="st1" d="M1088.24,1617.5c5.38,0,9.75-4.36,9.75-9.75s-4.36-9.75-9.75-9.75-9.75,4.36-9.75,9.75,4.36,9.75,9.75,9.75Z"/>
  <circle class="st2" cx="1013.63" cy="1578.21" r="10.28"/>
  <path class="st2" d="M943.31,1549.3c5.38,0,9.75-4.36,9.75-9.75s-4.36-9.75-9.75-9.75-9.75,4.36-9.75,9.75,4.36,9.75,9.75,9.75Z"/>
  <circle class="st2" cx="878.38" cy="1492.38" r="11.34"/>
  <path class="st2" d="M831.58,1437.44c0-6.46-5.24-11.7-11.69-11.7s-11.7,5.24-11.7,11.7,5.24,11.7,11.7,11.7,11.69-5.24,11.69-11.7Z"/>
  <path class="st2" d="M768.73,1384.47c4.89,0,8.86-3.97,8.86-8.86s-3.97-8.86-8.86-8.86-8.86,3.97-8.86,8.86,3.97,8.86,8.86,8.86Z"/>
  <path class="st2" d="M717.58,1307.85c0,4.5,3.65,8.15,8.15,8.15s8.15-3.65,8.15-8.15-3.65-8.15-8.15-8.15-8.15,3.65-8.15,8.15Z"/>
  <circle class="st2" cx="691.56" cy="1235.24" r="15.24"/>
  <path class="st2" d="M666.76,1166.36c4.11,0,7.44-3.33,7.44-7.44s-3.33-7.44-7.44-7.44-7.44,3.33-7.44,7.44,3.33,7.44,7.44,7.44Z"/>
  <circle class="st2" cx="651.73" cy="1080.09" r="5.14"/>
  <circle class="st2" cx="646.69" cy="1000" r="4.25"/>
  <path class="st2" d="M651.73,923.28c1.86,0,3.37-1.51,3.37-3.37s-1.51-3.37-3.37-3.37-3.37,1.51-3.37,3.37,1.51,3.37,3.37,3.37Z"/>
  <path class="st2" d="M661.8,841.08c0,2.74,2.22,4.96,4.96,4.96s4.96-2.22,4.96-4.96-2.22-4.96-4.96-4.96-4.96,2.22-4.96,4.96Z"/>
  <path class="st2" d="M694.22,764.76c0-1.47-1.19-2.66-2.66-2.66s-2.66,1.19-2.66,2.66,1.19,2.66,2.66,2.66,2.66-1.19,2.66-2.66Z"/>
  <path class="st2" d="M725.73,693.92c.98,0,1.77-.79,1.77-1.77s-.79-1.77-1.77-1.77-1.77.79-1.77,1.77.79,1.77,1.77,1.77Z"/>
  <path class="st2" d="M772.1,624.39c0-1.86-1.51-3.37-3.37-3.37s-3.37,1.51-3.37,3.37,1.51,3.37,3.37,3.37,3.37-1.51,3.37-3.37Z"/>
  <path class="st2" d="M819.88,569.11c3.62,0,6.56-2.94,6.56-6.56s-2.94-6.56-6.56-6.56-6.56,2.94-6.56,6.56,2.94,6.56,6.56,6.56Z"/>
  <circle class="st2" cx="878.38" cy="507.62" r="11.87"/>
  <path class="st2" d="M932.5,460.45c0,5.97,4.84,10.81,10.81,10.81s10.81-4.84,10.81-10.81-4.84-10.81-10.81-10.81-10.81,4.84-10.81,10.81Z"/>
  <path class="st2" d="M1008.67,421.79c0,2.74,2.22,4.96,4.96,4.96s4.96-2.22,4.96-4.96-2.22-4.96-4.96-4.96-4.96,2.22-4.96,4.96Z"/>
  <path class="st2" d="M1084.17,392.25c0,2.25,1.83,4.08,4.08,4.08s4.08-1.82,4.08-4.08-1.83-4.08-4.08-4.08-4.08,1.82-4.08,4.08Z"/>
  <circle class="st2" cx="1165.97" cy="372.29" r="3.37"/>
  <path class="st2" d="M1250.02,362.23c0-2.45-1.98-4.43-4.43-4.43s-4.43,1.98-4.43,4.43,1.98,4.43,4.43,4.43,4.43-1.98,4.43-4.43Z"/>
  <path class="st2" d="M1325.84,365.24c1.66,0,3.01-1.35,3.01-3.01s-1.35-3.01-3.01-3.01-3.01,1.35-3.01,3.01,1.35,3.01,3.01,3.01Z"/>
  <path class="st2" d="M1402.8,372.29c0,1.47,1.19,2.66,2.66,2.66s2.66-1.19,2.66-2.66-1.19-2.66-2.66-2.66-2.66,1.19-2.66,2.66Z"/>
  <circle class="st2" cx="1483.19" cy="392.25" r="6.02"/>
  <circle class="st2" cx="1557.8" cy="421.79" r="1.95"/>
  <circle class="st2" cx="1628.12" cy="460.45" r="2.84"/>
  <circle class="st2" cx="1693.05" cy="507.62" r="4.78"/>
  <path class="st2" d="M1747.12,562.55c0,2.45,1.98,4.43,4.43,4.43s4.43-1.98,4.43-4.43-1.98-4.43-4.43-4.43-4.43,1.98-4.43,4.43Z"/>
  <path class="st2" d="M1802.7,622.79c-.88,0-1.6.71-1.6,1.6s.71,1.59,1.6,1.59,1.59-.71,1.59-1.59-.71-1.6-1.59-1.6Z"/>
  <circle class="st2" cx="1845.7" cy="692.15" r="2.84"/>
  <path class="st2" d="M1879.87,771.49c3.72,0,6.73-3.02,6.73-6.73s-3.01-6.73-6.73-6.73-6.73,3.01-6.73,6.73,3.01,6.73,6.73,6.73Z"/>
  <circle class="st2" cx="1904.67" cy="841.08" r="5.67"/>
  <path class="st2" d="M1919.7,913c-3.82,0-6.91,3.09-6.91,6.91s3.09,6.91,6.91,6.91,6.91-3.09,6.91-6.91-3.09-6.91-6.91-6.91Z"/>
  <path class="st2" d="M1974.29,1000c0,7.93,6.43,14.35,14.35,14.35s14.35-6.43,14.35-14.35-6.43-14.35-14.35-14.35-14.35,6.43-14.35,14.35Z"/>
  <path class="st2" d="M1984.06,1064.71c-8.51,0-15.42,6.9-15.42,15.42s6.9,15.42,15.42,15.42,15.42-6.9,15.42-15.42-6.9-15.42-15.42-15.42Z"/>
  <circle class="st0" cx="1970.38" cy="1159.21" r="15.59"/>
  <path class="st0" d="M1928.27,1236.22c0,10.77,8.73,19.49,19.49,19.49s19.49-8.73,19.49-19.49-8.73-19.49-19.49-19.49-19.49,8.73-19.49,19.49Z"/>
  <path class="st0" d="M1916.52,1294.38c-8.71,0-15.77,7.06-15.77,15.77s7.06,15.77,15.77,15.77,15.77-7.06,15.77-15.77-7.06-15.77-15.77-15.77Z"/>
  <path class="st0" d="M1877.06,1400.59c11.35,0,20.56-9.2,20.56-20.55s-9.2-20.56-20.56-20.56-20.55,9.2-20.55,20.56,9.2,20.55,20.55,20.55Z"/>
  <path class="st0" d="M1809.86,1444.96c0,11.06,8.97,20.02,20.02,20.02s20.02-8.97,20.02-20.02-8.97-20.02-20.02-20.02-20.02,8.97-20.02,20.02Z"/>
  <circle class="st0" cx="1775.61" cy="1504.09" r="17.9"/>
  <circle class="st2" cx="1714.96" cy="1556.65" r="17.01"/>
  <path class="st2" d="M1648.71,1614.89c7.14,0,12.94-5.79,12.94-12.94s-5.79-12.94-12.94-12.94-12.94,5.79-12.94,12.94,5.79,12.94,12.94,12.94Z"/>
  <path class="st2" d="M1577.72,1650.04c5.87,0,10.63-4.76,10.63-10.63s-4.76-10.63-10.63-10.63-10.63,4.76-10.63,10.63,4.76,10.63,10.63,10.63Z"/>
  <circle class="st2" cx="1502.93" cy="1668.53" r="9.39"/>
  <circle class="st2" cx="1425.31" cy="1688.93" r="7.62"/>
  <path class="st2" d="M1345.87,1710.1c5.38,0,9.75-4.36,9.75-9.75s-4.36-9.75-9.75-9.75-9.75,4.36-9.75,9.75,4.36,9.75,9.75,9.75Z"/>
  <path class="st1" d="M1265.64,1718.59c8.81,0,15.95-7.14,15.95-15.95s-7.14-15.95-15.95-15.95-15.95,7.14-15.95,15.95,7.14,15.95,15.95,15.95Z"/>
  <path class="st1" d="M1185.68,1710.48c8.12,0,14.71-6.59,14.71-14.71s-6.59-14.71-14.71-14.71-14.71,6.58-14.71,14.71,6.59,14.71,14.71,14.71Z"/>
  <path class="st1" d="M1107.02,1689.41c5.28,0,9.57-4.28,9.57-9.57s-4.28-9.57-9.57-9.57-9.57,4.28-9.57,9.57,4.28,9.57,9.57,9.57Z"/>
  <path class="st1" d="M1030.69,1667.44c6.85,0,12.4-5.55,12.4-12.4s-5.55-12.4-12.4-12.4-12.4,5.55-12.4,12.4,5.55,12.4,12.4,12.4Z"/>
  <circle class="st2" cx="957.68" cy="1621.7" r="12.23"/>
  <path class="st2" d="M888.95,1593.19c7.14,0,12.94-5.79,12.94-12.94s-5.79-12.94-12.94-12.94-12.94,5.79-12.94,12.94,5.79,12.94,12.94,12.94Z"/>
  <path class="st2" d="M825.39,1544.71c7.44,0,13.47-6.03,13.47-13.47s-6.03-13.47-13.47-13.47-13.47,6.03-13.47,13.47,6.03,13.47,13.47,13.47Z"/>
  <path class="st2" d="M753.48,1475.3c0,7.93,6.43,14.35,14.35,14.35s14.35-6.43,14.35-14.35-6.43-14.35-14.35-14.35-14.35,6.43-14.35,14.35Z"/>
  <path class="st2" d="M699.13,1413.17c0,9.88,8.01,17.9,17.9,17.9s17.9-8.01,17.9-17.9-8.01-17.9-17.9-17.9-17.9,8.01-17.9,17.9Z"/>
  <path class="st2" d="M673.64,1336.44c-5.09,0-9.21,4.13-9.21,9.21s4.13,9.21,9.21,9.21,9.21-4.13,9.21-9.21-4.13-9.21-9.21-9.21Z"/>
  <path class="st2" d="M647.09,1273.63c0-4.89-3.97-8.86-8.86-8.86s-8.86,3.97-8.86,8.86,3.97,8.86,8.86,8.86,8.86-3.97,8.86-8.86Z"/>
  <circle class="st2" cx="611.26" cy="1198.04" r="4.78"/>
  <path class="st2" d="M593.08,1115.44c-2.45,0-4.43,1.98-4.43,4.43s1.98,4.43,4.43,4.43,4.43-1.98,4.43-4.43-1.98-4.43-4.43-4.43Z"/>
  <path class="st2" d="M580.03,1040.13c0,2.15,1.75,3.9,3.9,3.9s3.9-1.75,3.9-3.9-1.75-3.9-3.9-3.9-3.9,1.75-3.9,3.9Z"/>
  <circle class="st2" cx="583.93" cy="959.87" r="2.48"/>
  <path class="st2" d="M589.89,880.13c0,1.76,1.43,3.19,3.19,3.19s3.19-1.43,3.19-3.19-1.43-3.19-3.19-3.19-3.19,1.43-3.19,3.19Z"/>
  <circle class="st2" cx="611.26" cy="801.96" r="2.84"/>
  <path class="st2" d="M640.71,726.37c0-1.37-1.11-2.48-2.48-2.48s-2.48,1.11-2.48,2.48,1.11,2.48,2.48,2.48,2.48-1.11,2.48-2.48Z"/>
  <circle class="st2" cx="673.64" cy="654.35" r="2.3"/>
  <path class="st2" d="M717.03,582.75c-2.25,0-4.08,1.83-4.08,4.08s1.82,4.08,4.08,4.08,4.08-1.83,4.08-4.08-1.82-4.08-4.08-4.08Z"/>
  <circle class="st2" cx="767.84" cy="524.7" r="5.67"/>
  <circle class="st2" cx="825.39" cy="468.76" r="9.92"/>
  <path class="st2" d="M888.95,427.02c4.01,0,7.26-3.25,7.26-7.27s-3.25-7.26-7.26-7.26-7.27,3.25-7.27,7.26,3.25,7.27,7.27,7.27Z"/>
  <circle class="st2" cx="957.68" cy="378.3" r="8.86"/>
  <path class="st2" d="M1024.48,344.96c0,3.43,2.78,6.2,6.2,6.2s6.2-2.78,6.2-6.2-2.78-6.2-6.2-6.2-6.2,2.78-6.2,6.2Z"/>
  <circle class="st2" cx="1107.02" cy="320.16" r="4.61"/>
  <path class="st2" d="M1182.49,304.22c0,1.76,1.43,3.19,3.19,3.19s3.19-1.43,3.19-3.19-1.43-3.19-3.19-3.19-3.19,1.43-3.19,3.19Z"/>
  <circle class="st2" cx="1265.64" cy="297.36" r="3.37"/>
  <path class="st2" d="M1345.87,302.13c1.37,0,2.48-1.11,2.48-2.48s-1.11-2.48-2.48-2.48-2.48,1.11-2.48,2.48,1.11,2.48,2.48,2.48Z"/>
  <circle class="st2" cx="1425.31" cy="311.07" r="2.84"/>
  <path class="st2" d="M1502.93,328.28c-1.76,0-3.19,1.43-3.19,3.19s1.43,3.19,3.19,3.19,3.19-1.43,3.19-3.19-1.43-3.19-3.19-3.19Z"/>
  <path class="st2" d="M1577.72,348.9c-6.46,0-11.69,5.24-11.69,11.7s5.24,11.7,11.69,11.7,11.7-5.24,11.7-11.7-5.24-11.7-11.7-11.7Z"/>
  <circle class="st2" cx="1648.71" cy="398.05" r="3.72"/>
  <path class="st2" d="M1711.41,443.35c0,1.96,1.59,3.54,3.54,3.54s3.54-1.59,3.54-3.54-1.59-3.54-3.54-3.54-3.54,1.59-3.54,3.54Z"/>
  <circle class="st2" cx="1775.61" cy="495.91" r="6.2"/>
  <path class="st2" d="M1825.81,555.04c0,2.25,1.82,4.08,4.08,4.08s4.08-1.83,4.08-4.08-1.82-4.08-4.08-4.08-4.08,1.82-4.08,4.08Z"/>
  <circle class="st2" cx="1877.06" cy="619.97" r="2.84"/>
  <path class="st2" d="M1916.52,684.36c-3.03,0-5.49,2.46-5.49,5.49s2.46,5.49,5.49,5.49,5.49-2.46,5.49-5.49-2.46-5.49-5.49-5.49Z"/>
  <circle class="st2" cx="1947.77" cy="763.78" r="5.14"/>
  <circle class="st2" cx="1970.38" cy="840.79" r="7.62"/>
  <circle class="st2" cx="1984.06" cy="919.87" r="7.97"/>
  <path class="st2" d="M2052.55,986.18c-7.63,0-13.82,6.19-13.82,13.82s6.19,13.82,13.82,13.82,13.82-6.19,13.82-13.82-6.19-13.82-13.82-13.82Z"/>
  <circle class="st2" cx="2048.35" cy="1080.16" r="13.64" transform="translate(654.03 2929.04) rotate(-80.78)"/>
  <circle class="st0" cx="2035.79" cy="1159.43" r="16.66" transform="translate(565.23 2983.21) rotate(-80.78)"/>
  <circle class="st0" cx="2015.02" cy="1236.96" r="15.06"/>
  <path class="st0" d="M1986.25,1295.95c-8.81,0-15.95,7.14-15.95,15.95s7.14,15.95,15.95,15.95,15.95-7.14,15.95-15.95-7.14-15.95-15.95-15.95Z"/>
  <circle class="st0" cx="1949.81" cy="1383.42" r="19.31"/>
  <circle class="st0" cx="1798.83" cy="1569.87" r="19.85"/>
  <circle class="st2" cx="1736.45" cy="1620.38" r="17.01"/>
  <path class="st2" d="M1669.13,1678.1c7.73,0,14-6.27,14-14s-6.27-14-14-14-14,6.27-14,14,6.27,14,14,14Z"/>
  <path class="st2" d="M1597.61,1710.28c5.38,0,9.75-4.36,9.75-9.75s-4.36-9.75-9.75-9.75-9.75,4.36-9.75,9.75,4.36,9.75,9.75,9.75Z"/>
  <path class="st2" d="M1522.68,1719.91c-5.19,0-9.39,4.2-9.39,9.39s4.2,9.39,9.39,9.39,9.39-4.21,9.39-9.39-4.2-9.39-9.39-9.39Z"/>
  <path class="st2" d="M1460.57,1750.08c0-8.51-6.9-15.42-15.42-15.42s-15.42,6.9-15.42,15.42,6.9,15.42,15.42,15.42,15.42-6.9,15.42-15.42Z"/>
  <path class="st2" d="M1365.87,1774.33c6.46,0,11.69-5.24,11.69-11.7s-5.24-11.7-11.69-11.7-11.7,5.24-11.7,11.7,5.24,11.7,11.7,11.7Z"/>
  <path class="st1" d="M1300.95,1766.83c0-8.42-6.82-15.24-15.24-15.24s-15.24,6.82-15.24,15.24,6.82,15.24,15.24,15.24,15.24-6.82,15.24-15.24Z"/>
  <path class="st1" d="M1205.56,1781.42c10.37,0,18.78-8.41,18.78-18.78s-8.41-18.78-18.78-18.78-18.78,8.41-18.78,18.78,8.41,18.78,18.78,18.78Z"/>
  <circle class="st1" cx="1126.28" cy="1750.08" r="16.66"/>
  <path class="st1" d="M1060.98,1729.3c0-6.75-5.47-12.23-12.23-12.23s-12.23,5.47-12.23,12.23,5.47,12.23,12.23,12.23,12.23-5.47,12.23-12.23Z"/>
  <path class="st2" d="M973.82,1713.12c6.95,0,12.58-5.63,12.58-12.58s-5.63-12.58-12.58-12.58-12.58,5.63-12.58,12.58,5.63,12.58,12.58,12.58Z"/>
  <circle class="st2" cx="902.3" cy="1664.1" r="14.18"/>
  <path class="st2" d="M834.98,1638.46c9.98,0,18.07-8.09,18.07-18.07s-8.09-18.07-18.07-18.07-18.07,8.09-18.07,18.07,8.09,18.07,18.07,18.07Z"/>
  <path class="st2" d="M772.6,1581.74c6.56,0,11.87-5.32,11.87-11.87s-5.32-11.87-11.87-11.87-11.87,5.32-11.87,11.87,5.32,11.87,11.87,11.87Z"/>
  <path class="st2" d="M727.54,1513.11c0-6.46-5.24-11.69-11.7-11.69s-11.69,5.24-11.69,11.69,5.24,11.7,11.69,11.7,11.7-5.24,11.7-11.7Z"/>
  <path class="st2" d="M665.33,1461.37c5.87,0,10.63-4.76,10.63-10.63s-4.76-10.63-10.63-10.63-10.63,4.76-10.63,10.63,4.76,10.63,10.63,10.63Z"/>
  <path class="st2" d="M636.15,1383.42c0-8.02-6.51-14.53-14.53-14.53s-14.53,6.51-14.53,14.53,6.51,14.53,14.53,14.53,14.53-6.51,14.53-14.53Z"/>
  <circle class="st2" cx="585.18" cy="1311.9" r="15.59"/>
  <circle class="st2" cx="556.41" cy="1236.96" r="7.62"/>
  <circle class="st2" cx="535.64" cy="1159.43" r="4.43"/>
  <path class="st2" d="M527.16,1080.16c0-2.25-1.83-4.08-4.08-4.08s-4.08,1.82-4.08,4.08,1.83,4.08,4.08,4.08,4.08-1.82,4.08-4.08Z"/>
  <path class="st2" d="M526.32,1000c0-4.11-3.33-7.44-7.44-7.44s-7.44,3.33-7.44,7.44,3.33,7.44,7.44,7.44,7.44-3.33,7.44-7.44Z"/>
  <path class="st2" d="M523.08,915.95c-2.15,0-3.9,1.75-3.9,3.9s1.75,3.9,3.9,3.9,3.9-1.75,3.9-3.9-1.75-3.9-3.9-3.9Z"/>
  <path class="st2" d="M532.27,840.57c0,1.86,1.51,3.37,3.37,3.37s3.37-1.51,3.37-3.37-1.51-3.37-3.37-3.37-3.37,1.51-3.37,3.37Z"/>
  <path class="st2" d="M553.93,763.03c0,1.37,1.11,2.48,2.48,2.48s2.48-1.11,2.48-2.48-1.11-2.48-2.48-2.48-2.48,1.11-2.48,2.48Z"/>
  <path class="st2" d="M585.18,685.09c-1.66,0-3.01,1.35-3.01,3.01s1.35,3.01,3.01,3.01,3.01-1.35,3.01-3.01-1.35-3.01-3.01-3.01Z"/>
  <circle class="st2" cx="621.62" cy="616.58" r="2.84"/>
  <path class="st2" d="M669.94,549.27c0-2.55-2.06-4.61-4.61-4.61s-4.61,2.06-4.61,4.61,2.06,4.61,4.61,4.61,4.61-2.06,4.61-4.61Z"/>
  <path class="st2" d="M715.85,491.32c2.45,0,4.43-1.98,4.43-4.43s-1.98-4.43-4.43-4.43-4.43,1.98-4.43,4.43,1.98,4.43,4.43,4.43Z"/>
  <path class="st2" d="M768.17,430.13c0,2.45,1.98,4.43,4.43,4.43s4.43-1.98,4.43-4.43-1.98-4.43-4.43-4.43-4.43,1.98-4.43,4.43Z"/>
  <path class="st2" d="M834.98,386c3.52,0,6.38-2.86,6.38-6.38s-2.86-6.38-6.38-6.38-6.38,2.86-6.38,6.38,2.86,6.38,6.38,6.38Z"/>
  <path class="st2" d="M896.1,335.9c0,3.43,2.78,6.2,6.2,6.2s6.2-2.78,6.2-6.2-2.78-6.2-6.2-6.2-6.2,2.78-6.2,6.2Z"/>
  <path class="st2" d="M980.02,299.46c0-3.43-2.78-6.2-6.2-6.2s-6.2,2.78-6.2,6.2,2.78,6.2,6.2,6.2,6.2-2.78,6.2-6.2Z"/>
  <path class="st2" d="M1048.75,279.03c4.6,0,8.33-3.73,8.33-8.33s-3.73-8.33-8.33-8.33-8.33,3.73-8.33,8.33,3.73,8.33,8.33,8.33Z"/>
  <path class="st2" d="M1126.28,255.24c2.94,0,5.32-2.38,5.32-5.32s-2.38-5.32-5.32-5.32-5.32,2.38-5.32,5.32,2.38,5.32,5.32,5.32Z"/>
  <path class="st2" d="M1205.56,240.2c1.57,0,2.84-1.27,2.84-2.84s-1.27-2.84-2.84-2.84-2.84,1.27-2.84,2.84,1.27,2.84,2.84,2.84Z"/>
  <circle class="st2" cx="1285.71" cy="233.17" r="3.72"/>
  <path class="st2" d="M1365.87,239.67c1.27,0,2.3-1.03,2.3-2.3s-1.03-2.3-2.3-2.3-2.3,1.03-2.3,2.3,1.03,2.3,2.3,2.3Z"/>
  <path class="st2" d="M1445.15,252.58c1.47,0,2.66-1.19,2.66-2.66s-1.19-2.66-2.66-2.66-2.66,1.19-2.66,2.66,1.19,2.66,2.66,2.66Z"/>
  <circle class="st2" cx="1522.68" cy="270.7" r="2.84"/>
  <path class="st2" d="M1597.61,303.89c2.45,0,4.43-1.98,4.43-4.43s-1.98-4.43-4.43-4.43-4.43,1.98-4.43,4.43,1.98,4.43,4.43,4.43Z"/>
  <circle class="st2" cx="1669.13" cy="335.9" r="2.84"/>
  <path class="st2" d="M1738.04,379.62c0-.88-.71-1.59-1.6-1.59s-1.59.71-1.59,1.59.71,1.59,1.59,1.59,1.6-.71,1.6-1.59Z"/>
  <circle class="st2" cx="1798.83" cy="430.13" r="2.84"/>
  <circle class="st2" cx="1855.58" cy="486.89" r="4.78"/>
  <path class="st2" d="M1906.1,544.84c-2.45,0-4.43,1.98-4.43,4.43s1.98,4.43,4.43,4.43,4.43-1.98,4.43-4.43-1.98-4.43-4.43-4.43Z"/>
  <path class="st2" d="M1944.85,616.58c0,2.74,2.22,4.96,4.96,4.96s4.96-2.22,4.96-4.96-2.22-4.96-4.96-4.96-4.96,2.22-4.96,4.96Z"/>
  <circle class="st2" cx="1986.25" cy="688.1" r="7.09"/>
  <path class="st2" d="M2015.02,756.66c-3.52,0-6.38,2.86-6.38,6.38s2.86,6.38,6.38,6.38,6.38-2.86,6.38-6.38-2.86-6.38-6.38-6.38Z"/>
  <circle class="st2" cx="2035.79" cy="840.57" r="14.18" transform="translate(480.14 2399.72) rotate(-67.5)"/>
  <circle class="st2" cx="2048.35" cy="919.84" r="10.45"/>
  <path class="st2" d="M2103.52,1000c0,7.14,5.79,12.94,12.94,12.94s12.94-5.79,12.94-12.94-5.79-12.94-12.94-12.94-12.94,5.79-12.94,12.94Z"/>
  <circle class="st2" cx="2112.57" cy="1080.18" r="14.18"/>
  <path class="st0" d="M2082.37,1159.61c0,10.28,8.33,18.61,18.61,18.61s18.61-8.33,18.61-18.61-8.33-18.61-18.61-18.61-18.61,8.33-18.61,18.61Z"/>
  <path class="st0" d="M2063.69,1237.55c0,9.98,8.09,18.07,18.07,18.07s18.07-8.09,18.07-18.07-8.09-18.07-18.07-18.07-18.07,8.09-18.07,18.07Z"/>
  <circle class="st0" cx="2055.12" cy="1313.27" r="15.59" transform="translate(429.61 3131.49) rotate(-80.78)"/>
  <circle class="st0" cx="2021.3" cy="1386.06" r="21.26"/>
  <path class="st2" d="M1821.41,1659.58c13.6,0,24.63-11.03,24.63-24.63s-11.03-24.63-24.63-24.63-24.63,11.03-24.63,24.63,11.03,24.63,24.63,24.63Z"/>
  <circle class="st2" cx="1757.63" cy="1683.68" r="17.54"/>
  <circle class="st2" cx="1689.44" cy="1726.04" r="17.9"/>
  <path class="st2" d="M1617.48,1772.78c6.17,0,11.16-5,11.16-11.16s-5-11.16-11.16-11.16-11.16,5-11.16,11.16,5,11.16,11.16,11.16Z"/>
  <path class="st2" d="M1555.01,1790.08c0-6.95-5.63-12.58-12.58-12.58s-12.58,5.63-12.58,12.58,5.63,12.58,12.58,12.58,12.58-5.63,12.58-12.58Z"/>
  <circle class="st2" cx="1464.97" cy="1811.17" r="11.7"/>
  <path class="st2" d="M1402.33,1824.68c0-9.1-7.38-16.48-16.48-16.48s-16.48,7.38-16.48,16.48,7.38,16.48,16.48,16.48,16.48-7.38,16.48-16.48Z"/>
  <circle class="st1" cx="1305.79" cy="1830.49" r="17.01"/>
  <path class="st1" d="M1243.08,1828.55c0-9.69-7.85-17.54-17.54-17.54s-17.54,7.85-17.54,17.54,7.85,17.54,17.54,17.54,17.54-7.85,17.54-17.54Z"/>
  <path class="st1" d="M1163.4,1818.88c0-9.69-7.85-17.54-17.54-17.54s-17.54,7.85-17.54,17.54,7.85,17.54,17.54,17.54,17.54-7.85,17.54-17.54Z"/>
  <circle class="st1" cx="1067.47" cy="1801.56" r="13.64"/>
  <path class="st2" d="M1003.36,1776.75c0-6.75-5.47-12.23-12.23-12.23s-12.23,5.47-12.23,12.23,5.47,12.23,12.23,12.23,12.23-5.47,12.23-12.23Z"/>
  <path class="st2" d="M930.47,1744.69c0-7.14-5.79-12.94-12.94-12.94s-12.94,5.79-12.94,12.94,5.79,12.94,12.94,12.94,12.94-5.79,12.94-12.94Z"/>
  <circle class="st2" cx="847.38" cy="1705.68" r="15.24"/>
  <circle class="st2" cx="781.32" cy="1660.08" r="10.99"/>
  <path class="st2" d="M719.97,1620.37c6.65,0,12.05-5.4,12.05-12.05s-5.39-12.05-12.05-12.05-12.05,5.39-12.05,12.05,5.4,12.05,12.05,12.05Z"/>
  <path class="st2" d="M655.57,1550.88c0,4.6,3.73,8.33,8.33,8.33s8.33-3.73,8.33-8.33-3.73-8.33-8.33-8.33-8.33,3.73-8.33,8.33Z"/>
  <circle class="st2" cx="613.63" cy="1488.29" r="5.67"/>
  <path class="st2" d="M569.64,1426.11c2.74,0,4.96-2.22,4.96-4.96s-2.22-4.96-4.96-4.96-4.96,2.22-4.96,4.96,2.22,4.96,4.96,4.96Z"/>
  <circle class="st2" cx="532.34" cy="1350.07" r="8.51"/>
  <path class="st2" d="M509.87,1275.73c0-4.31-3.49-7.8-7.8-7.8s-7.8,3.49-7.8,7.8,3.49,7.8,7.8,7.8,7.8-3.49,7.8-7.8Z"/>
  <path class="st2" d="M473.8,1198.81c0,2.94,2.38,5.32,5.32,5.32s5.32-2.38,5.32-5.32-2.38-5.32-5.32-5.32-5.32,2.38-5.32,5.32Z"/>
  <circle class="st2" cx="463.7" cy="1120.03" r="3.9"/>
  <path class="st2" d="M455.95,1045.63c3.03,0,5.49-2.46,5.49-5.49s-2.46-5.49-5.49-5.49-5.49,2.46-5.49,5.49,2.46,5.49,5.49,5.49Z"/>
  <circle class="st2" cx="455.95" cy="959.86" r="5.67"/>
  <path class="st2" d="M467.24,879.97c0-1.96-1.59-3.54-3.54-3.54s-3.54,1.59-3.54,3.54,1.59,3.54,3.54,3.54,3.54-1.59,3.54-3.54Z"/>
  <path class="st2" d="M481.78,801.19c0-1.47-1.19-2.66-2.66-2.66s-2.66,1.19-2.66,2.66,1.19,2.66,2.66,2.66,2.66-1.19,2.66-2.66Z"/>
  <circle class="st2" cx="502.07" cy="724.27" r="3.19"/>
  <path class="st2" d="M530.21,649.93c0,1.17.95,2.13,2.13,2.13s2.13-.95,2.13-2.13-.95-2.13-2.13-2.13-2.13.95-2.13,2.13Z"/>
  <path class="st2" d="M574.25,578.85c0-2.54-2.06-4.61-4.61-4.61s-4.61,2.06-4.61,4.61,2.06,4.61,4.61,4.61,4.61-2.06,4.61-4.61Z"/>
  <path class="st2" d="M613.63,507.81c-2.15,0-3.9,1.75-3.9,3.9s1.75,3.9,3.9,3.9,3.9-1.75,3.9-3.9-1.75-3.9-3.9-3.9Z"/>
  <circle class="st2" cx="663.9" cy="449.12" r="3.19"/>
  <circle class="st2" cx="719.97" cy="391.68" r="2.84"/>
  <path class="st2" d="M781.32,342.57c1.47,0,2.66-1.19,2.66-2.66s-1.19-2.66-2.66-2.66-2.66,1.19-2.66,2.66,1.19,2.66,2.66,2.66Z"/>
  <path class="st2" d="M847.38,301.05c3.72,0,6.73-3.02,6.73-6.73s-3.01-6.73-6.73-6.73-6.73,3.02-6.73,6.73,3.01,6.73,6.73,6.73Z"/>
  <path class="st2" d="M917.54,260.27c2.74,0,4.96-2.22,4.96-4.96s-2.22-4.96-4.96-4.96-4.96,2.22-4.96,4.96,2.22,4.96,4.96,4.96Z"/>
  <circle class="st2" cx="991.13" cy="223.25" r="3.9"/>
  <path class="st2" d="M1067.47,202.87c2.45,0,4.43-1.98,4.43-4.43s-1.98-4.43-4.43-4.43-4.43,1.98-4.43,4.43,1.98,4.43,4.43,4.43Z"/>
  <path class="st2" d="M1145.85,186.08c2.74,0,4.96-2.22,4.96-4.96s-2.22-4.96-4.96-4.96-4.96,2.22-4.96,4.96,2.22,4.96,4.96,4.96Z"/>
  <path class="st2" d="M1225.54,174.63c1.76,0,3.19-1.43,3.19-3.19s-1.43-3.19-3.19-3.19-3.19,1.43-3.19,3.19,1.43,3.19,3.19,3.19Z"/>
  <circle class="st2" cx="1305.79" cy="169.51" r="4.25"/>
  <path class="st2" d="M1385.85,178.86c1.96,0,3.54-1.59,3.54-3.54s-1.59-3.54-3.54-3.54-3.54,1.59-3.54,3.54,1.59,3.54,3.54,3.54Z"/>
  <circle class="st2" cx="1464.97" cy="188.83" r="4.25"/>
  <path class="st2" d="M1542.43,213.11c1.76,0,3.19-1.43,3.19-3.19s-1.43-3.19-3.19-3.19-3.19,1.43-3.19,3.19,1.43,3.19,3.19,3.19Z"/>
  <path class="st2" d="M1617.48,240.87c1.37,0,2.48-1.11,2.48-2.48s-1.11-2.48-2.48-2.48-2.48,1.11-2.48,2.48,1.11,2.48,2.48,2.48Z"/>
  <circle class="st2" cx="1689.44" cy="273.96" r="1.77"/>
  <circle class="st2" cx="1757.63" cy="316.32" r="3.37"/>
  <path class="st2" d="M1821.41,361.86c-1.76,0-3.19,1.43-3.19,3.19s1.43,3.19,3.19,3.19,3.19-1.43,3.19-3.19-1.43-3.19-3.19-3.19Z"/>
  <path class="st2" d="M1880.19,423.62c2.15,0,3.9-1.75,3.9-3.9s-1.75-3.9-3.9-3.9-3.9,1.75-3.9,3.9,1.75,3.9,3.9,3.9Z"/>
  <path class="st2" d="M1925.98,479.8c0,4.11,3.33,7.44,7.44,7.44s7.44-3.33,7.44-7.44-3.33-7.44-7.44-7.44-7.44,3.33-7.44,7.44Z"/>
  <path class="st2" d="M1971.92,544.75c0,4.8,3.89,8.68,8.68,8.68s8.68-3.89,8.68-8.68-3.89-8.68-8.68-8.68-8.68,3.89-8.68,8.68Z"/>
  <path class="st2" d="M2055.12,678.4c-4.6,0-8.33,3.73-8.33,8.33s3.73,8.33,8.33,8.33,8.33-3.73,8.33-8.33-3.73-8.33-8.33-8.33Z"/>
  <path class="st2" d="M2072.73,762.45c0,4.99,4.05,9.04,9.04,9.04s9.04-4.05,9.04-9.04-4.05-9.04-9.04-9.04-9.04,4.05-9.04,9.04Z"/>
  <circle class="st2" cx="2100.98" cy="840.39" r="14.71"/>
  <circle class="st2" cx="2112.57" cy="919.82" r="13.64"/>
  <circle class="st2" cx="2180.35" cy="1000" r="17.01"/>
  <circle class="st0" cx="2176.75" cy="1080.2" r="19.85"/>
  <path class="st0" d="M2180.86,1159.74c0-8.22-6.66-14.89-14.88-14.89s-14.89,6.66-14.89,14.89,6.66,14.88,14.89,14.88,14.88-6.66,14.88-14.88Z"/>
  <path class="st0" d="M2148.11,1261.75c13.11,0,23.74-10.63,23.74-23.74s-10.63-23.75-23.74-23.75-23.74,10.63-23.74,23.75,10.63,23.74,23.74,23.74Z"/>
  <path class="st0" d="M2123.31,1338.28c13.21,0,23.92-10.71,23.92-23.92s-10.71-23.92-23.92-23.92-23.92,10.71-23.92,23.92,10.71,23.92,23.92,23.92Z"/>
  <circle class="st0" cx="2091.76" cy="1388.17" r="16.13"/>
  <path class="st0" d="M2078.17,1458.86c0-13.51-10.95-24.45-24.45-24.45s-24.45,10.95-24.45,24.45,10.95,24.45,24.45,24.45,24.45-10.95,24.45-24.45Z"/>
  <path class="st2" d="M1843.51,1722.32c12.62,0,22.86-10.23,22.86-22.86s-10.23-22.86-22.86-22.86-22.86,10.23-22.86,22.86,10.23,22.86,22.86,22.86Z"/>
  <path class="st2" d="M1778.57,1761.88c8.42,0,15.24-6.82,15.24-15.24s-6.82-15.24-15.24-15.24-15.24,6.82-15.24,15.24,6.82,15.24,15.24,15.24Z"/>
  <circle class="st2" cx="1709.66" cy="1787.82" r="15.06"/>
  <circle class="st2" cx="1637.33" cy="1822.65" r="17.01"/>
  <circle class="st2" cx="1562.17" cy="1850.85" r="13.64"/>
  <path class="st2" d="M1499.85,1872.21c0-8.32-6.74-15.06-15.06-15.06s-15.06,6.74-15.06,15.06,6.74,15.06,15.06,15.06,15.06-6.74,15.06-15.06Z"/>
  <path class="st2" d="M1420.16,1886.54c0-7.93-6.43-14.35-14.35-14.35s-14.35,6.43-14.35,14.35,6.43,14.35,14.35,14.35,14.35-6.43,14.35-14.35Z"/>
  <path class="st2" d="M1340.21,1893.74c0-7.93-6.43-14.35-14.35-14.35s-14.35,6.43-14.35,14.35,6.43,14.35,14.35,14.35,14.35-6.43,14.35-14.35Z"/>
  <circle class="st1" cx="1245.58" cy="1893.74" r="22.15"/>
  <circle class="st1" cx="1165.62" cy="1886.54" r="18.96"/>
  <path class="st1" d="M1105.6,1872.21c0-10.47-8.49-18.96-18.96-18.96s-18.96,8.49-18.96,18.96,8.49,18.96,18.96,18.96,18.96-8.49,18.96-18.96Z"/>
  <path class="st2" d="M1024.49,1850.85c0-8.42-6.82-15.24-15.24-15.24s-15.24,6.82-15.24,15.24,6.82,15.24,15.24,15.24,15.24-6.82,15.24-15.24Z"/>
  <circle class="st2" cx="934.1" cy="1822.65" r="15.06"/>
  <path class="st2" d="M874.18,1787.82c0-6.85-5.55-12.4-12.4-12.4s-12.4,5.55-12.4,12.4,5.55,12.4,12.4,12.4,12.4-5.55,12.4-12.4Z"/>
  <path class="st2" d="M675.61,1646.64c0-4.5-3.65-8.15-8.15-8.15s-8.15,3.65-8.15,8.15,3.65,8.15,8.15,8.15,8.15-3.65,8.15-8.15Z"/>
  <circle class="st2" cx="611.99" cy="1588.62" r="6.56"/>
  <circle class="st2" cx="561.94" cy="1525.86" r="4.08"/>
  <path class="st2" d="M517.71,1461.87c1.66,0,3.01-1.35,3.01-3.01s-1.35-3.01-3.01-3.01-3.01,1.35-3.01,3.01,1.35,3.01,3.01,3.01Z"/>
  <circle class="st2" cx="479.67" cy="1388.17" r="5.32"/>
  <path class="st2" d="M457.34,1314.35c0-5.09-4.13-9.21-9.21-9.21s-9.21,4.13-9.21,9.21,4.13,9.21,9.21,9.21,9.21-4.13,9.21-9.21Z"/>
  <path class="st2" d="M415.34,1238.01c0,4.4,3.57,7.97,7.97,7.97s7.97-3.57,7.97-7.97-3.57-7.97-7.97-7.97-7.97,3.57-7.97,7.97Z"/>
  <path class="st2" d="M399.96,1159.74c0,3.03,2.46,5.49,5.49,5.49s5.49-2.46,5.49-5.49-2.46-5.49-5.49-5.49-5.49,2.46-5.49,5.49Z"/>
  <path class="st2" d="M394.68,1075.76c-2.45,0-4.43,1.98-4.43,4.43s1.98,4.43,4.43,4.43,4.43-1.98,4.43-4.43-1.98-4.43-4.43-4.43Z"/>
  <circle class="st2" cx="391.08" cy="1000" r="6.56"/>
  <circle class="st2" cx="394.68" cy="919.8" r="5.14"/>
  <path class="st2" d="M409.17,840.26c0-2.06-1.67-3.72-3.72-3.72s-3.72,1.67-3.72,3.72,1.67,3.72,3.72,3.72,3.72-1.67,3.72-3.72Z"/>
  <circle class="st2" cx="423.32" cy="761.99" r="4.25"/>
  <circle class="st2" cx="448.12" cy="685.65" r="4.25"/>
  <path class="st2" d="M479.67,604.39c-4.11,0-7.44,3.33-7.44,7.44s3.33,7.44,7.44,7.44,7.44-3.33,7.44-7.44-3.33-7.44-7.44-7.44Z"/>
  <path class="st2" d="M517.71,535.65c-3.03,0-5.49,2.46-5.49,5.49s2.46,5.49,5.49,5.49,5.49-2.46,5.49-5.49-2.46-5.49-5.49-5.49Z"/>
  <path class="st2" d="M568.14,474.14c0-3.43-2.78-6.2-6.2-6.2s-6.2,2.78-6.2,6.2,2.78,6.2,6.2,6.2,6.2-2.78,6.2-6.2Z"/>
  <circle class="st2" cx="611.99" cy="411.38" r="3.19"/>
  <path class="st2" d="M667.46,356.02c1.47,0,2.66-1.19,2.66-2.66s-1.19-2.66-2.66-2.66-2.66,1.19-2.66,2.66,1.19,2.66,2.66,2.66Z"/>
  <path class="st2" d="M727.92,303.2c1.47,0,2.66-1.19,2.66-2.66s-1.19-2.66-2.66-2.66-2.66,1.19-2.66,2.66,1.19,2.66,2.66,2.66Z"/>
  <path class="st2" d="M792.86,260.8c4.11,0,7.44-3.33,7.44-7.44s-3.33-7.44-7.44-7.44-7.44,3.33-7.44,7.44,3.33,7.44,7.44,7.44Z"/>
  <path class="st2" d="M861.77,217.5c2.94,0,5.32-2.38,5.32-5.32s-2.38-5.32-5.32-5.32-5.32,2.38-5.32,5.32,2.38,5.32,5.32,5.32Z"/>
  <circle class="st2" cx="934.1" cy="177.35" r="6.56"/>
  <path class="st2" d="M1009.26,154.64c3.03,0,5.49-2.46,5.49-5.49s-2.46-5.49-5.49-5.49-5.49,2.46-5.49,5.49,2.46,5.49,5.49,5.49Z"/>
  <path class="st2" d="M1086.64,131.33c1.96,0,3.54-1.59,3.54-3.54s-1.59-3.54-3.54-3.54-3.54,1.59-3.54,3.54,1.59,3.54,3.54,3.54Z"/>
  <path class="st2" d="M1165.62,118.95c3.03,0,5.49-2.46,5.49-5.49s-2.46-5.49-5.49-5.49-5.49,2.46-5.49,5.49,2.46,5.49,5.49,5.49Z"/>
  <circle class="st2" cx="1245.58" cy="106.26" r="9.92"/>
  <path class="st2" d="M1325.85,110.69c2.45,0,4.43-1.98,4.43-4.43s-1.98-4.43-4.43-4.43-4.43,1.98-4.43,4.43,1.98,4.43,4.43,4.43Z"/>
  <path class="st2" d="M1405.81,117.36c2.15,0,3.9-1.75,3.9-3.9s-1.75-3.9-3.9-3.9-3.9,1.75-3.9,3.9,1.75,3.9,3.9,3.9Z"/>
  <path class="st2" d="M1484.79,132.22c2.45,0,4.43-1.98,4.43-4.43s-1.98-4.43-4.43-4.43-4.43,1.98-4.43,4.43,1.98,4.43,4.43,4.43Z"/>
  <path class="st2" d="M1562.17,159.78c5.87,0,10.63-4.76,10.63-10.63s-4.76-10.63-10.63-10.63-10.63,4.76-10.63,10.63,4.76,10.63,10.63,10.63Z"/>
  <circle class="st2" cx="1637.33" cy="177.35" r="10.28"/>
  <path class="st2" d="M1709.66,216.26c2.25,0,4.08-1.83,4.08-4.08s-1.82-4.08-4.08-4.08-4.08,1.82-4.08,4.08,1.82,4.08,4.08,4.08Z"/>
  <circle class="st2" cx="1778.57" cy="253.36" r="5.14"/>
  <path class="st2" d="M1843.51,293.28c-4.01,0-7.26,3.25-7.26,7.26s3.25,7.27,7.26,7.27,7.26-3.25,7.26-7.27-3.25-7.26-7.26-7.26Z"/>
  <circle class="st2" cx="1903.97" cy="353.36" r="6.02"/>
  <circle class="st2" cx="1959.44" cy="411.38" r="6.56"/>
  <path class="st2" d="M2017.11,474.14c0-4.21-3.41-7.62-7.62-7.62s-7.62,3.41-7.62,7.62,3.41,7.62,7.62,7.62,7.62-3.41,7.62-7.62Z"/>
  <path class="st2" d="M2123.31,675.01c-5.87,0-10.63,4.76-10.63,10.63s4.76,10.63,10.63,10.63,10.63-4.76,10.63-10.63-4.76-10.63-10.63-10.63Z"/>
  <circle class="st2" cx="2148.11" cy="761.99" r="22.86"/>
  <path class="st2" d="M2165.98,826.61c-7.54,0-13.64,6.11-13.64,13.64s6.11,13.64,13.64,13.64,13.64-6.11,13.64-13.64-6.11-13.64-13.64-13.64Z"/>
  <circle class="st2" cx="2176.75" cy="919.8" r="15.06"/>
  <path class="st2" d="M2244.26,982.81c-9.49,0-17.19,7.7-17.19,17.19s7.7,17.19,17.19,17.19,17.19-7.7,17.19-17.19-7.7-17.19-17.19-17.19Z"/>
  <path class="st2" d="M2240.9,1064.44c-8.71,0-15.77,7.06-15.77,15.77s7.06,15.77,15.77,15.77,15.77-7.06,15.77-15.77-7.06-15.77-15.77-15.77Z"/>
  <path class="st2" d="M2230.83,1176.16c9,0,16.3-7.3,16.3-16.3s-7.3-16.3-16.3-16.3-16.3,7.3-16.3,16.3,7.3,16.3,16.3,16.3Z"/>
  <path class="st0" d="M2199.26,1238.38c0,8.22,6.66,14.89,14.88,14.89s14.89-6.66,14.89-14.89-6.66-14.88-14.89-14.88-14.88,6.66-14.88,14.88Z"/>
  <circle class="st0" cx="2190.94" cy="1315.23" r="15.59"/>
  <path class="st0" d="M2161.39,1404.76c8.22,0,14.89-6.66,14.89-14.88s-6.66-14.89-14.89-14.89-14.88,6.66-14.88,14.89,6.66,14.88,14.88,14.88Z"/>
  <circle class="st0" cx="2084.11" cy="1530.45" r="19.85"/>
  <path class="st2" d="M1927.11,1728.64c9,0,16.3-7.3,16.3-16.3s-7.3-16.3-16.3-16.3-16.3,7.3-16.3,16.3,7.3,16.3,16.3,16.3Z"/>
  <path class="st2" d="M1879.78,1763.51c0-8.02-6.51-14.53-14.53-14.53s-14.53,6.51-14.53,14.53,6.51,14.53,14.53,14.53,14.53-6.51,14.53-14.53Z"/>
  <circle class="st2" cx="1799.33" cy="1809.32" r="15.06"/>
  <path class="st2" d="M1743.63,1849.46c0-7.63-6.19-13.82-13.82-13.82s-13.82,6.19-13.82,13.82,6.19,13.82,13.82,13.82,13.82-6.19,13.82-13.82Z"/>
  <circle class="st2" cx="1657.17" cy="1883.65" r="17.01"/>
  <path class="st2" d="M1597.69,1911.63c0-8.71-7.06-15.77-15.77-15.77s-15.77,7.06-15.77,15.77,7.06,15.77,15.77,15.77,15.77-7.06,15.77-15.77Z"/>
  <path class="st2" d="M1504.6,1911.78c-11.84,0-21.44,9.6-21.44,21.44s9.6,21.44,21.44,21.44,21.44-9.6,21.44-21.44-9.6-21.44-21.44-21.44Z"/>
  <circle class="st2" cx="1425.74" cy="1948.26" r="16.48"/>
  <path class="st2" d="M1345.9,1935.03c-11.94,0-21.62,9.68-21.62,21.62s9.68,21.62,21.62,21.62,21.62-9.68,21.62-21.62-9.68-21.62-21.62-21.62Z"/>
  <path class="st2" d="M1265.64,1942.03c-9,0-16.3,7.3-16.3,16.3s7.3,16.3,16.3,16.3,16.3-7.3,16.3-16.3-7.3-16.3-16.3-16.3Z"/>
  <path class="st2" d="M1185.52,1932.56c-11.45,0-20.73,9.28-20.73,20.73s9.28,20.73,20.73,20.73,20.73-9.28,20.73-20.73-9.28-20.73-20.73-20.73Z"/>
  <path class="st1" d="M1106.1,1916.22c-13.99,0-25.34,11.35-25.34,25.34s11.35,25.34,25.34,25.34,25.34-11.35,25.34-25.34-11.35-25.34-25.34-25.34Z"/>
  <path class="st1" d="M1027.94,1908.88c-7.93,0-14.35,6.43-14.35,14.35s6.43,14.35,14.35,14.35,14.35-6.43,14.35-14.35-6.43-14.35-14.35-14.35Z"/>
  <circle class="st2" cx="951.59" cy="1898.42" r="13.11"/>
  <path class="st2" d="M892.47,1867.31c0-8.22-6.66-14.88-14.88-14.88s-14.89,6.66-14.89,14.88,6.66,14.89,14.89,14.89,14.88-6.66,14.88-14.89Z"/>
  <circle class="st2" cx="615.06" cy="1684.85" r="6.56"/>
  <path class="st2" d="M557.09,1626.33c0,1.66,1.35,3.01,3.01,3.01s3.01-1.35,3.01-3.01-1.35-3.01-3.01-3.01-3.01,1.35-3.01,3.01Z"/>
  <path class="st2" d="M508.11,1563.42c0,1.17.95,2.13,2.13,2.13s2.13-.95,2.13-2.13-.95-2.13-2.13-2.13-2.13.95-2.13,2.13Z"/>
  <path class="st2" d="M464.75,1496.55c0,.59.48,1.06,1.06,1.06s1.06-.48,1.06-1.06-.48-1.06-1.06-1.06-1.06.48-1.06,1.06Z"/>
  <circle class="st2" cx="427.14" cy="1426.2" r="4.78"/>
  <path class="st2" d="M402.46,1352.86c0-4.4-3.57-7.97-7.97-7.97s-7.97,3.57-7.97,7.97,3.57,7.97,7.97,7.97,7.97-3.57,7.97-7.97Z"/>
  <path class="st2" d="M378.36,1277.05c0-5.68-4.6-10.28-10.28-10.28s-10.28,4.6-10.28,10.28,4.6,10.28,10.28,10.28,10.28-4.6,10.28-10.28Z"/>
  <circle class="st2" cx="348.12" cy="1199.29" r="5.67"/>
  <path class="st2" d="M343.41,1120.14c0-4.8-3.89-8.68-8.68-8.68s-8.68,3.89-8.68,8.68,3.89,8.68,8.68,8.68,8.68-3.89,8.68-8.68Z"/>
  <path class="st2" d="M328.01,1032.34c-4.31,0-7.8,3.49-7.8,7.8s3.49,7.8,7.8,7.8,7.8-3.49,7.8-7.8-3.49-7.8-7.8-7.8Z"/>
  <circle class="st2" cx="328.01" cy="959.86" r="3.72"/>
  <path class="st2" d="M334.73,883.94c2.25,0,4.08-1.82,4.08-4.08s-1.82-4.08-4.08-4.08-4.08,1.82-4.08,4.08,1.82,4.08,4.08,4.08Z"/>
  <circle class="st2" cx="348.12" cy="800.71" r="7.62"/>
  <path class="st2" d="M368.08,718.17c-2.64,0-4.78,2.14-4.78,4.78s2.14,4.78,4.78,4.78,4.78-2.14,4.78-4.78-2.14-4.78-4.78-4.78Z"/>
  <path class="st2" d="M394.48,657.77c5.87,0,10.63-4.76,10.63-10.63s-4.76-10.63-10.63-10.63-10.63,4.76-10.63,10.63,4.76,10.63,10.63,10.63Z"/>
  <path class="st2" d="M427.14,565.65c-4.5,0-8.15,3.65-8.15,8.15s3.65,8.15,8.15,8.15,8.15-3.65,8.15-8.15-3.65-8.15-8.15-8.15Z"/>
  <path class="st2" d="M471.84,503.45c0-3.33-2.7-6.02-6.02-6.02s-6.02,2.7-6.02,6.02,2.7,6.02,6.02,6.02,6.02-2.7,6.02-6.02Z"/>
  <path class="st2" d="M510.24,432.15c-2.45,0-4.43,1.98-4.43,4.43s1.98,4.43,4.43,4.43,4.43-1.98,4.43-4.43-1.98-4.43-4.43-4.43Z"/>
  <path class="st2" d="M560.1,378.1c2.45,0,4.43-1.98,4.43-4.43s-1.98-4.43-4.43-4.43-4.43,1.98-4.43,4.43,1.98,4.43,4.43,4.43Z"/>
  <circle class="st2" cx="615.06" cy="315.15" r="1.77"/>
  <path class="st2" d="M674.72,263.2c.98,0,1.77-.79,1.77-1.77s-.79-1.77-1.77-1.77-1.77.79-1.77,1.77.79,1.77,1.77,1.77Z"/>
  <circle class="st2" cx="738.66" cy="212.89" r="6.2"/>
  <path class="st2" d="M806.44,175.19c2.94,0,5.32-2.38,5.32-5.32s-2.38-5.32-5.32-5.32-5.32,2.38-5.32,5.32,2.38,5.32,5.32,5.32Z"/>
  <circle class="st2" cx="877.59" cy="132.68" r="4.78"/>
  <path class="st2" d="M951.59,106.01c2.45,0,4.43-1.98,4.43-4.43s-1.98-4.43-4.43-4.43-4.43,1.98-4.43,4.43,1.98,4.43,4.43,4.43Z"/>
  <path class="st2" d="M1027.94,81.2c2.45,0,4.43-1.98,4.43-4.43s-1.98-4.43-4.43-4.43-4.43,1.98-4.43,4.43,1.98,4.43,4.43,4.43Z"/>
  <path class="st2" d="M1106.1,66.06c4.21,0,7.62-3.41,7.62-7.62s-3.41-7.62-7.62-7.62-7.62,3.41-7.62,7.62,3.41,7.62,7.62,7.62Z"/>
  <path class="st2" d="M1185.52,52.2c3.03,0,5.49-2.46,5.49-5.49s-2.46-5.49-5.49-5.49-5.49,2.46-5.49,5.49,2.46,5.49,5.49,5.49Z"/>
  <path class="st2" d="M1265.64,48.4c3.72,0,6.73-3.01,6.73-6.73s-3.01-6.73-6.73-6.73-6.73,3.02-6.73,6.73,3.01,6.73,6.73,6.73Z"/>
  <path class="st2" d="M1345.9,50.97c4.21,0,7.62-3.41,7.62-7.62s-3.41-7.62-7.62-7.62-7.62,3.41-7.62,7.62,3.41,7.62,7.62,7.62Z"/>
  <path class="st2" d="M1425.74,55.64c2.15,0,3.9-1.75,3.9-3.9s-1.75-3.9-3.9-3.9-3.9,1.75-3.9,3.9,1.75,3.9,3.9,3.9Z"/>
  <circle class="st2" cx="1504.6" cy="66.78" r="7.09"/>
  <circle class="st2" cx="1581.92" cy="88.37" r="7.62"/>
  <circle class="st2" cx="1657.17" cy="116.35" r="7.97"/>
  <circle class="st2" cx="1729.8" cy="150.54" r="10.1"/>
  <path class="st2" d="M1799.33,196.7c3.33,0,6.02-2.7,6.02-6.02s-2.7-6.02-6.02-6.02-6.02,2.7-6.02,6.02,2.7,6.02,6.02,6.02Z"/>
  <path class="st2" d="M1865.25,244.29c4.31,0,7.8-3.49,7.8-7.8s-3.49-7.8-7.8-7.8-7.8,3.49-7.8,7.8,3.49,7.8,7.8,7.8Z"/>
  <circle class="st2" cx="1927.11" cy="287.66" r="7.62"/>
  <circle class="st2" cx="1984.46" cy="343.83" r="9.39"/>
  <path class="st2" d="M2036.92,394.86c-5.38,0-9.75,4.36-9.75,9.75s4.36,9.75,9.75,9.75,9.75-4.36,9.75-9.75-4.36-9.75-9.75-9.75Z"/>
  <path class="st2" d="M2161.39,592.94c-9.49,0-17.19,7.7-17.19,17.19s7.7,17.19,17.19,17.19,17.19-7.7,17.19-17.19-7.7-17.19-17.19-17.19Z"/>
  <path class="st2" d="M2190.94,671.3c-7.44,0-13.47,6.03-13.47,13.47s6.03,13.47,13.47,13.47,13.47-6.03,13.47-13.47-6.03-13.47-13.47-13.47Z"/>
  <circle class="st2" cx="2214.14" cy="761.62" r="12.76"/>
  <path class="st2" d="M2230.83,826.15c-7.73,0-14,6.27-14,14s6.27,14,14,14,14-6.27,14-14-6.27-14-14-14Z"/>
  <path class="st2" d="M2240.9,903.49c-9,0-16.3,7.3-16.3,16.3s7.3,16.3,16.3,16.3,16.3-7.3,16.3-16.3-7.3-16.3-16.3-16.3Z"/>
  <path class="st2" d="M2326.77,1000c0-10.28-8.33-18.61-18.61-18.61s-18.61,8.33-18.61,18.61,8.33,18.61,18.61,18.61,18.61-8.33,18.61-18.61Z"/>
  <path class="st2" d="M2288.71,1080.22c0,9,7.3,16.3,16.3,16.3s16.3-7.3,16.3-16.3-7.3-16.3-16.3-16.3-16.3,7.3-16.3,16.3Z"/>
  <circle class="st2" cx="2295.57" cy="1159.95" r="18.43"/>
  <path class="st2" d="M2296.39,1238.68c0-9.1-7.38-16.48-16.48-16.48s-16.48,7.38-16.48,16.48,7.38,16.48,16.48,16.48,16.48-7.38,16.48-16.48Z"/>
  <circle class="st2" cx="2258.12" cy="1315.95" r="16.66"/>
  <circle class="st2" cx="2230.33" cy="1391.27" r="16.13"/>
  <circle class="st0" cx="2196.72" cy="1464.18" r="17.01"/>
  <circle class="st2" cx="1886.69" cy="1827.18" r="16.48"/>
  <circle class="st2" cx="1676.99" cy="1944.62" r="21.8"/>
  <path class="st2" d="M1119.85,2000h11.83c-1.76-1.06-3.71-1.84-5.91-1.84s-4.15.78-5.92,1.84h0Z"/>
  <circle class="st2" cx="562.74" cy="1722.98" r="7.09"/>
  <path class="st2" d="M504.7,1664.02c0,1.96,1.59,3.54,3.54,3.54s3.54-1.59,3.54-3.54-1.59-3.54-3.54-3.54-3.54,1.59-3.54,3.54Z"/>
  <path class="st2" d="M458.54,1603.64c1.47,0,2.66-1.19,2.66-2.66s-1.19-2.66-2.66-2.66-2.66,1.19-2.66,2.66,1.19,2.66,2.66,2.66Z"/>
  <path class="st2" d="M413.94,1536.35c1.17,0,2.13-.95,2.13-2.13s-.95-2.13-2.13-2.13-2.13.95-2.13,2.13.95,2.13,2.13,2.13Z"/>
  <circle class="st2" cx="374.71" cy="1464.18" r="3.9"/>
  <path class="st2" d="M348.36,1391.27c0-4.01-3.25-7.27-7.26-7.27s-7.27,3.25-7.27,7.27,3.25,7.26,7.27,7.26,7.26-3.25,7.26-7.26Z"/>
  <circle class="st2" cx="313.31" cy="1315.95" r="8.68"/>
  <path class="st2" d="M291.52,1248.25c5.28,0,9.57-4.28,9.57-9.57s-4.28-9.57-9.57-9.57-9.57,4.28-9.57,9.57,4.28,9.57,9.57,9.57Z"/>
  <circle class="st2" cx="275.86" cy="1159.95" r="7.09"/>
  <circle class="st2" cx="266.42" cy="1080.22" r="6.02"/>
  <path class="st2" d="M258.31,1000c0,2.74,2.22,4.96,4.96,4.96s4.96-2.22,4.96-4.96-2.22-4.96-4.96-4.96-4.96,2.22-4.96,4.96Z"/>
  <path class="st2" d="M266.42,914.46c-2.94,0-5.32,2.38-5.32,5.32s2.38,5.32,5.32,5.32,5.32-2.38,5.32-5.32-2.38-5.32-5.32-5.32Z"/>
  <path class="st2" d="M269.83,840.05c0,3.33,2.7,6.02,6.02,6.02s6.02-2.7,6.02-6.02-2.7-6.02-6.02-6.02-6.02,2.7-6.02,6.02Z"/>
  <path class="st2" d="M286.2,761.31c0,2.94,2.38,5.32,5.32,5.32s5.32-2.38,5.32-5.32-2.38-5.32-5.32-5.32-5.32,2.38-5.32,5.32Z"/>
  <path class="st2" d="M307.46,684.05c0,3.23,2.62,5.85,5.85,5.85s5.85-2.62,5.85-5.85-2.62-5.85-5.85-5.85-5.85,2.62-5.85,5.85Z"/>
  <circle class="st2" cx="341.1" cy="608.73" r="4.25"/>
  <path class="st2" d="M374.71,526.96c-4.89,0-8.86,3.97-8.86,8.86s3.97,8.86,8.86,8.86,8.86-3.97,8.86-8.86-3.97-8.86-8.86-8.86Z"/>
  <circle class="st2" cx="413.94" cy="465.77" r="5.14"/>
  <path class="st2" d="M458.54,405.76c3.72,0,6.73-3.02,6.73-6.73s-3.01-6.73-6.73-6.73-6.73,3.02-6.73,6.73,3.01,6.73,6.73,6.73Z"/>
  <path class="st2" d="M508.24,343.24c4.01,0,7.27-3.25,7.27-7.27s-3.25-7.26-7.27-7.26-7.26,3.25-7.26,7.26,3.25,7.27,7.26,7.27h0Z"/>
  <path class="st2" d="M562.74,286.24c5.09,0,9.21-4.13,9.21-9.21s-4.13-9.21-9.21-9.21-9.21,4.13-9.21,9.21,4.13,9.21,9.21,9.21Z"/>
  <path class="st2" d="M621.69,225.18c1.47,0,2.66-1.19,2.66-2.66s-1.19-2.66-2.66-2.66-2.66,1.19-2.66,2.66,1.19,2.66,2.66,2.66Z"/>
  <path class="st2" d="M684.74,178.85c3.33,0,6.02-2.7,6.02-6.02s-2.7-6.02-6.02-6.02-6.02,2.7-6.02,6.02,2.7,6.02,6.02,6.02Z"/>
  <circle class="st2" cx="751.49" cy="128.22" r="6.2"/>
  <circle class="st2" cx="821.53" cy="88.99" r="7.62"/>
  <path class="st2" d="M894.44,60.88c3.03,0,5.49-2.46,5.49-5.49s-2.46-5.49-5.49-5.49-5.49,2.46-5.49,5.49,2.46,5.49,5.49,5.49Z"/>
  <path class="st2" d="M969.76,38.58c6.07,0,10.99-4.92,10.99-10.99s-4.92-10.99-10.99-10.99-10.99,4.92-10.99,10.99,4.92,10.99,10.99,10.99Z"/>
  <path class="st2" d="M1524.4,7.75c1.08,0,1.95-.87,1.95-1.95s-.87-1.95-1.95-1.95-1.95.87-1.95,1.95.87,1.95,1.95,1.95Z"/>
  <path class="st2" d="M1601.67,34.33c3.72,0,6.73-3.01,6.73-6.73s-3.02-6.73-6.73-6.73-6.73,3.01-6.73,6.73,3.01,6.73,6.73,6.73Z"/>
  <path class="st2" d="M1676.99,64.07c4.8,0,8.68-3.89,8.68-8.68s-3.89-8.68-8.68-8.68-8.68,3.89-8.68,8.68,3.89,8.68,8.68,8.68Z"/>
  <path class="st2" d="M1749.9,100.51c6.36,0,11.52-5.16,11.52-11.52s-5.16-11.52-11.52-11.52-11.52,5.16-11.52,11.52,5.16,11.52,11.52,11.52Z"/>
  <circle class="st2" cx="1819.94" cy="128.22" r="9.39"/>
  <path class="st2" d="M1886.69,181.51c4.8,0,8.68-3.89,8.68-8.68s-3.89-8.68-8.68-8.68-8.68,3.89-8.68,8.68,3.89,8.68,8.68,8.68h0Z"/>
  <path class="st2" d="M1949.74,230.68c4.5,0,8.15-3.65,8.15-8.15s-3.65-8.15-8.15-8.15-8.15,3.65-8.15,8.15,3.65,8.15,8.15,8.15Z"/>
  <path class="st2" d="M2008.69,266.57c-5.77,0-10.45,4.68-10.45,10.45s4.68,10.46,10.45,10.46,10.45-4.68,10.45-10.46-4.68-10.45-10.45-10.45Z"/>
  <circle class="st2" cx="2063.19" cy="335.97" r="11.34"/>
  <path class="st2" d="M2112.89,383.25c-8.71,0-15.77,7.06-15.77,15.77s7.06,15.77,15.77,15.77,15.77-7.06,15.77-15.77-7.06-15.77-15.77-15.77Z"/>
  <path class="st2" d="M2196.72,517.21c-10.28,0-18.61,8.33-18.61,18.61s8.33,18.61,18.61,18.61,18.61-8.33,18.61-18.61-8.33-18.61-18.61-18.61Z"/>
  <circle class="st2" cx="2230.33" cy="608.73" r="14.53"/>
  <path class="st2" d="M2258.12,669.69c-7.93,0-14.35,6.43-14.35,14.35s6.43,14.35,14.35,14.35,14.35-6.43,14.35-14.35-6.43-14.35-14.35-14.35Z"/>
  <path class="st2" d="M2267.68,761.31c0,6.75,5.47,12.23,12.23,12.23s12.23-5.47,12.23-12.23-5.47-12.23-12.23-12.23-12.23,5.47-12.23,12.23Z"/>
  <path class="st2" d="M2295.57,825.35c-8.12,0-14.71,6.59-14.71,14.71s6.58,14.71,14.71,14.71,14.71-6.59,14.71-14.71-6.59-14.71-14.71-14.71Z"/>
  <circle class="st2" cx="2305.01" cy="919.78" r="12.76"/>
  <path class="st2" d="M2390.31,1000c0-10.08-8.17-18.25-18.25-18.25s-18.25,8.17-18.25,18.25,8.17,18.25,18.25,18.25,18.25-8.17,18.25-18.25Z"/>
  <path class="st2" d="M2381.5,1080.23c0-6.85-5.55-12.4-12.4-12.4s-12.4,5.55-12.4,12.4,5.55,12.4,12.4,12.4,12.4-5.55,12.4-12.4Z"/>
  <circle class="st2" cx="2360.21" cy="1160.02" r="14.71"/>
  <path class="st2" d="M2333.06,1238.94c0,6.85,5.55,12.4,12.4,12.4s12.4-5.55,12.4-12.4-5.55-12.4-12.4-12.4-12.4,5.55-12.4,12.4Z"/>
  <path class="st2" d="M2339.81,1316.55c0-8.22-6.66-14.88-14.89-14.88s-14.88,6.66-14.88,14.88,6.66,14.89,14.88,14.89,14.89-6.66,14.89-14.89Z"/>
  <path class="st2" d="M2298.7,1410.69c10.08,0,18.25-8.17,18.25-18.25s-8.17-18.25-18.25-18.25-18.25,8.17-18.25,18.25,8.17,18.25,18.25,18.25Z"/>
  <circle class="st2" cx="2266.96" cy="1466.17" r="21.62"/>
  <path class="st2" d="M1921.73,1890.52c0-7.63-6.19-13.82-13.82-13.82s-13.82,6.19-13.82,13.82,6.19,13.82,13.82,13.82,13.82-6.19,13.82-13.82Z"/>
  <path class="st2" d="M510.49,1767.59c3.62,0,6.56-2.94,6.56-6.56s-2.94-6.56-6.56-6.56-6.56,2.94-6.56,6.56,2.94,6.56,6.56,6.56Z"/>
  <path class="st2" d="M453.03,1701.7c0,1.86,1.51,3.37,3.37,3.37s3.37-1.51,3.37-3.37-1.51-3.37-3.37-3.37-3.37,1.51-3.37,3.37Z"/>
  <path class="st2" d="M406.84,1633.05c-3.03,0-5.49,2.46-5.49,5.49s2.46,5.49,5.49,5.49,5.49-2.46,5.49-5.49-2.46-5.49-5.49-5.49Z"/>
  <circle class="st2" cx="362.08" cy="1571.89" r="2.3"/>
  <circle class="st2" cx="322.37" cy="1502.11" r="2.3"/>
  <path class="st2" d="M295.54,1429.6c0-4.21-3.41-7.62-7.62-7.62s-7.62,3.41-7.62,7.62,3.41,7.62,7.62,7.62,7.62-3.41,7.62-7.62Z"/>
  <path class="st2" d="M273.8,1354.73c0-8.22-6.66-14.89-14.88-14.89s-14.89,6.66-14.89,14.89,6.66,14.88,14.89,14.88,14.88-6.66,14.88-14.88Z"/>
  <circle class="st2" cx="235.52" cy="1277.93" r="8.51"/>
  <path class="st2" d="M200.11,1048.82c4.8,0,8.68-3.89,8.68-8.68s-3.89-8.68-8.68-8.68-8.68,3.89-8.68,8.68,3.89,8.68,8.68,8.68h0Z"/>
  <circle class="st2" cx="200.11" cy="959.86" r="7.09"/>
  <path class="st2" d="M198.77,879.79c0,4.01,3.25,7.26,7.26,7.26s7.26-3.25,7.26-7.26-3.25-7.27-7.26-7.27-7.26,3.25-7.26,7.27Z"/>
  <circle class="st2" cx="217.86" cy="800.38" r="5.67"/>
  <circle class="st2" cx="235.52" cy="722.07" r="9.92"/>
  <path class="st2" d="M252.71,645.27c0,3.43,2.78,6.2,6.2,6.2s6.2-2.78,6.2-6.2-2.78-6.2-6.2-6.2-6.2,2.78-6.2,6.2Z"/>
  <path class="st2" d="M287.92,576.6c3.43,0,6.2-2.78,6.2-6.2s-2.78-6.2-6.2-6.2-6.2,2.78-6.2,6.2,2.78,6.2,6.2,6.2Z"/>
  <path class="st2" d="M322.37,505.86c4.4,0,7.97-3.57,7.97-7.97s-3.57-7.97-7.97-7.97-7.97,3.57-7.97,7.97,3.57,7.97,7.97,7.97Z"/>
  <path class="st2" d="M356.59,428.11c0,3.03,2.46,5.49,5.49,5.49s5.49-2.46,5.49-5.49-2.46-5.49-5.49-5.49-5.49,2.46-5.49,5.49Z"/>
  <path class="st2" d="M406.84,369.61c4.5,0,8.15-3.65,8.15-8.15s-3.65-8.15-8.15-8.15-8.15,3.65-8.15,8.15,3.65,8.15,8.15,8.15Z"/>
  <path class="st2" d="M456.4,295.82c-1.37,0-2.48,1.11-2.48,2.48s1.11,2.48,2.48,2.48,2.48-1.11,2.48-2.48-1.11-2.48-2.48-2.48Z"/>
  <path class="st2" d="M510.49,245.88c3.82,0,6.91-3.09,6.91-6.91s-3.09-6.91-6.91-6.91-6.91,3.09-6.91,6.91,3.09,6.91,6.91,6.91h0Z"/>
  <path class="st2" d="M568.81,190.53c3.72,0,6.73-3.02,6.73-6.73s-3.01-6.73-6.73-6.73-6.73,3.01-6.73,6.73,3.02,6.73,6.73,6.73Z"/>
  <path class="st2" d="M631.04,138.92c3.23,0,5.85-2.62,5.85-5.85s-2.62-5.85-5.85-5.85-5.85,2.62-5.85,5.85,2.62,5.85,5.85,5.85Z"/>
  <path class="st2" d="M696.86,94c3.82,0,6.91-3.09,6.91-6.91s-3.09-6.91-6.91-6.91-6.91,3.09-6.91,6.91,3.09,6.91,6.91,6.91Z"/>
  <path class="st2" d="M765.88,54.07c4.4,0,7.97-3.57,7.97-7.97s-3.57-7.97-7.97-7.97-7.97,3.57-7.97,7.97,3.57,7.97,7.97,7.97Z"/>
  <path class="st2" d="M1769.94,34.63c3.91,0,7.09-3.17,7.09-7.09s-3.17-7.09-7.09-7.09-7.09,3.17-7.09,7.09,3.17,7.09,7.09,7.09Z"/>
  <circle class="st2" cx="1840.44" cy="65.96" r="9.04"/>
  <path class="st2" d="M1907.9,120.99c6.36,0,11.52-5.16,11.52-11.52s-5.16-11.52-11.52-11.52-11.52,5.16-11.52,11.52,5.16,11.52,11.52,11.52Z"/>
  <path class="st2" d="M1971.97,173.1c8.42,0,15.24-6.82,15.24-15.24s-6.82-15.24-15.24-15.24-15.24,6.82-15.24,15.24,6.82,15.24,15.24,15.24Z"/>
  <path class="st2" d="M2021.13,210.84c0,6.17,5,11.16,11.16,11.16s11.16-5,11.16-11.16-5-11.16-11.16-11.16-11.16,5-11.16,11.16Z"/>
  <path class="st2" d="M2088.54,256.97c-6.17,0-11.16,5-11.16,11.16s5,11.16,11.16,11.16,11.16-5,11.16-11.16-5-11.16-11.16-11.16Z"/>
  <path class="st2" d="M2140.39,318.26c-6.17,0-11.16,5-11.16,11.16s5,11.16,11.16,11.16,11.16-5,11.16-11.16-5-11.16-11.16-11.16Z"/>
  <path class="st2" d="M2266.96,518.59c-8.42,0-15.24,6.82-15.24,15.24s6.82,15.24,15.24,15.24,15.24-6.82,15.24-15.24-6.82-15.24-15.24-15.24Z"/>
  <circle class="st2" cx="2298.7" cy="607.57" r="15.59"/>
  <circle class="st2" cx="2324.92" cy="683.45" r="15.06"/>
  <path class="st2" d="M2345.46,748.66c-6.85,0-12.4,5.55-12.4,12.4s5.55,12.4,12.4,12.4,12.4-5.55,12.4-12.4-5.55-12.4-12.4-12.4Z"/>
  <path class="st2" d="M2360.21,827.4c-6.95,0-12.58,5.63-12.58,12.58s5.63,12.58,12.58,12.58,12.58-5.63,12.58-12.58-5.63-12.58-12.58-12.58Z"/>
  <circle class="st2" cx="2369.1" cy="919.77" r="18.43"/>
  <circle class="st2" cx="2435.97" cy="1000" r="18.96"/>
  <circle class="st2" cx="2433.16" cy="1080.24" r="14.18"/>
  <circle class="st2" cx="2424.77" cy="1160.08" r="14.53"/>
  <path class="st2" d="M2410.83,1225.15c-7.73,0-14,6.27-14,14s6.27,14,14,14,14-6.27,14-14-6.27-14-14-14Z"/>
  <path class="st2" d="M2406.82,1317.05c0-8.51-6.9-15.42-15.42-15.42s-15.42,6.9-15.42,15.42,6.9,15.42,15.42,15.42,15.42-6.9,15.42-15.42Z"/>
  <path class="st2" d="M2366.6,1407.76c7.93,0,14.35-6.43,14.35-14.35s-6.43-14.35-14.35-14.35-14.35,6.43-14.35,14.35,6.43,14.35,14.35,14.35Z"/>
  <circle class="st2" cx="2336.52" cy="1467.85" r="17.9"/>
  <path class="st2" d="M458.29,1804.88c3.23,0,5.85-2.62,5.85-5.85s-2.62-5.85-5.85-5.85-5.85,2.62-5.85,5.85,2.62,5.85,5.85,5.85Z"/>
  <circle class="st2" cx="404.57" cy="1739.37" r="4.08"/>
  <path class="st2" d="M355.14,1680.53c2.45,0,4.43-1.98,4.43-4.43s-1.98-4.43-4.43-4.43-4.43,1.98-4.43,4.43,1.98,4.43,4.43,4.43Z"/>
  <path class="st2" d="M310.25,1605.46c-2.25,0-4.08,1.82-4.08,4.08s1.82,4.08,4.08,4.08,4.08-1.82,4.08-4.08-1.82-4.08-4.08-4.08Z"/>
  <path class="st2" d="M270.1,1531.33c-4.8,0-8.68,3.89-8.68,8.68s3.89,8.68,8.68,8.68,8.68-3.89,8.68-8.68-3.89-8.68-8.68-8.68Z"/>
  <circle class="st2" cx="234.91" cy="1467.85" r="4.25"/>
  <path class="st2" d="M204.83,1384.73c-4.8,0-8.68,3.89-8.68,8.68s3.89,8.68,8.68,8.68,8.68-3.89,8.68-8.68-3.89-8.68-8.68-8.68h0Z"/>
  <path class="st2" d="M189.59,1317.05c0-5.28-4.28-9.57-9.57-9.57s-9.57,4.28-9.57,9.57,4.28,9.57,9.57,9.57,9.57-4.28,9.57-9.57Z"/>
  <path class="st2" d="M135.46,1006.91c3.82,0,6.91-3.09,6.91-6.91s-3.09-6.91-6.91-6.91-6.91,3.09-6.91,6.91,3.09,6.91,6.91,6.91Z"/>
  <path class="st2" d="M138.27,927.03c4.01,0,7.26-3.25,7.26-7.26s-3.25-7.27-7.26-7.27-7.26,3.25-7.26,7.27,3.25,7.26,7.26,7.26Z"/>
  <path class="st2" d="M146.66,855.16c8.42,0,15.24-6.82,15.24-15.24s-6.82-15.24-15.24-15.24-15.24,6.82-15.24,15.24,6.82,15.24,15.24,15.24Z"/>
  <path class="st2" d="M155.11,760.85c0,3.03,2.46,5.49,5.49,5.49s5.49-2.46,5.49-5.49-2.46-5.49-5.49-5.49-5.49,2.46-5.49,5.49Z"/>
  <path class="st2" d="M180.02,689.68c3.72,0,6.73-3.01,6.73-6.73s-3.01-6.73-6.73-6.73-6.73,3.01-6.73,6.73,3.02,6.73,6.73,6.73Z"/>
  <circle class="st2" cx="204.83" cy="606.59" r="4.61"/>
  <path class="st2" d="M234.91,540.12c4.4,0,7.97-3.57,7.97-7.97s-3.57-7.97-7.97-7.97-7.97,3.57-7.97,7.97,3.57,7.97,7.97,7.97Z"/>
  <circle class="st2" cx="270.1" cy="459.99" r="5.67"/>
  <circle class="st2" cx="310.25" cy="390.46" r="2.84"/>
  <path class="st2" d="M350.36,323.9c0,2.64,2.14,4.78,4.78,4.78s4.78-2.14,4.78-4.78-2.14-4.78-4.78-4.78-4.78,2.14-4.78,4.78Z"/>
  <path class="st2" d="M404.57,263.82c1.76,0,3.19-1.43,3.19-3.19s-1.43-3.19-3.19-3.19-3.19,1.43-3.19,3.19,1.43,3.19,3.19,3.19Z"/>
  <path class="st2" d="M463.43,200.97c0-2.84-2.3-5.14-5.14-5.14s-5.14,2.3-5.14,5.14,2.3,5.14,5.14,5.14,5.14-2.3,5.14-5.14Z"/>
  <circle class="st2" cx="516.05" cy="145.2" r="5.67" transform="translate(184.42 566.4) rotate(-67.5)"/>
  <path class="st2" d="M577.55,101.92c4.6,0,8.33-3.73,8.33-8.33s-3.73-8.33-8.33-8.33-8.33,3.73-8.33,8.33,3.73,8.33,8.33,8.33Z"/>
  <path class="st2" d="M642.5,51.36c2.74,0,4.96-2.22,4.96-4.96s-2.22-4.96-4.96-4.96-4.96,2.22-4.96,4.96,2.22,4.96,4.96,4.96Z"/>
  <circle class="st2" cx="1928.93" cy="46.4" r="5.67"/>
  <path class="st2" d="M1993.88,102.63c4.99,0,9.04-4.05,9.04-9.04s-4.05-9.04-9.04-9.04-9.04,4.05-9.04,9.04,4.05,9.04,9.04,9.04Z"/>
  <circle class="st2" cx="2055.38" cy="145.2" r="11.87" transform="translate(1582.82 2150.78) rotate(-80.78)"/>
  <path class="st2" d="M2099.67,200.97c0,7.44,6.03,13.47,13.47,13.47s13.47-6.03,13.47-13.47-6.03-13.47-13.47-13.47-13.47,6.03-13.47,13.47Z"/>
  <path class="st2" d="M2166.86,245.22c-8.51,0-15.42,6.9-15.42,15.42s6.9,15.42,15.42,15.42,15.42-6.9,15.42-15.42-6.9-15.42-15.42-15.42h0Z"/>
  <path class="st2" d="M2336.52,514.08c-9.98,0-18.07,8.09-18.07,18.07s8.09,18.07,18.07,18.07,18.07-8.09,18.07-18.07-8.09-18.07-18.07-18.07Z"/>
  <path class="st2" d="M2348.35,606.59c0,10.08,8.17,18.25,18.25,18.25s18.25-8.17,18.25-18.25-8.17-18.25-18.25-18.25-18.25,8.17-18.25,18.25Z"/>
  <path class="st2" d="M2391.41,668.42c-8.02,0-14.53,6.51-14.53,14.53s6.51,14.53,14.53,14.53,14.53-6.51,14.53-14.53-6.51-14.53-14.53-14.53Z"/>
  <circle class="st2" cx="2410.83" cy="760.85" r="14.18"/>
  <path class="st2" d="M2424.77,824.5c-8.51,0-15.42,6.9-15.42,15.42s6.9,15.42,15.42,15.42,15.42-6.9,15.42-15.42-6.9-15.42-15.42-15.42Z"/>
  <circle class="st2" cx="2433.16" cy="919.76" r="17.01"/>
  <circle class="st2" cx="2499.87" cy="1000" r="22.15"/>
  <circle class="st2" cx="2497.21" cy="1080.24" r="14.53"/>
  <circle class="st2" cx="2489.26" cy="1160.14" r="16.13"/>
  <path class="st2" d="M2494.3,1239.33c0-10.08-8.17-18.25-18.25-18.25s-18.25,8.17-18.25,18.25,8.17,18.25,18.25,18.25,18.25-8.17,18.25-18.25Z"/>
  <path class="st2" d="M2477.83,1317.48c0-11.16-9.04-20.2-20.2-20.2s-20.2,9.04-20.2,20.2,9.04,20.2,20.2,20.2,20.2-9.04,20.2-20.2Z"/>
  <path class="st2" d="M2434.08,1375.45c-10.37,0-18.78,8.41-18.78,18.78s8.41,18.78,18.78,18.78,18.78-8.41,18.78-18.78-8.41-18.78-18.78-18.78Z"/>
  <circle class="st2" cx="406.15" cy="1836.98" r="5.67"/>
  <circle class="st2" cx="352.76" cy="1777.02" r="14"/>
  <path class="st2" d="M303.44,1708.88c-2.64,0-4.78,2.14-4.78,4.78s2.14,4.78,4.78,4.78,4.78-2.14,4.78-4.78-2.14-4.78-4.78-4.78Z"/>
  <circle class="st2" cx="258.42" cy="1647.18" r="4.25"/>
  <path class="st2" d="M217.9,1573.27c-2.54,0-4.61,2.06-4.61,4.61s2.06,4.61,4.61,4.61,4.61-2.06,4.61-4.61-2.06-4.61-4.61-4.61Z"/>
  <path class="st2" d="M185.41,1506.04c0-1.86-1.51-3.37-3.37-3.37s-3.37,1.51-3.37,3.37,1.51,3.37,3.37,3.37,3.37-1.51,3.37-3.37Z"/>
  <circle class="st2" cx="151.01" cy="1431.99" r="6.02"/>
  <path class="st2" d="M135.04,1356.05c0-5.58-4.52-10.1-10.1-10.1s-10.1,4.52-10.1,10.1,4.52,10.1,10.1,10.1,10.1-4.52,10.1-10.1Z"/>
  <path class="st2" d="M117.41,1278.56c0-7.44-6.03-13.47-13.47-13.47s-13.47,6.03-13.47,13.47,6.03,13.47,13.47,13.47,13.47-6.03,13.47-13.47Z"/>
  <path class="st2" d="M72.22,1049.36c5.09,0,9.21-4.13,9.21-9.21s-4.13-9.21-9.21-9.21-9.21,4.13-9.21,9.21,4.13,9.21,9.21,9.21Z"/>
  <circle class="st2" cx="72.22" cy="959.86" r="6.56"/>
  <circle class="st2" cx="77.53" cy="879.74" r="7.44"/>
  <circle class="st2" cx="88.12" cy="800.16" r="5.85"/>
  <path class="st2" d="M97.04,721.44c0,3.82,3.09,6.91,6.91,6.91s6.91-3.09,6.91-6.91-3.09-6.91-6.91-6.91-6.91,3.09-6.91,6.91Z"/>
  <path class="st2" d="M124.94,639.87c-2.25,0-4.08,1.82-4.08,4.08s1.82,4.08,4.08,4.08,4.08-1.82,4.08-4.08-1.82-4.08-4.08-4.08Z"/>
  <path class="st2" d="M143.57,568.01c0,4.11,3.33,7.44,7.44,7.44s7.44-3.33,7.44-7.44-3.33-7.44-7.44-7.44-7.44,3.33-7.44,7.44Z"/>
  <circle class="st2" cx="182.04" cy="493.96" r="7.26"/>
  <circle class="st2" cx="217.9" cy="422.13" r="4.78"/>
  <circle class="st2" cx="258.42" cy="352.82" r="4.25"/>
  <circle class="st2" cx="303.44" cy="286.34" r="5.32"/>
  <path class="st2" d="M352.76,217.49c-3.03,0-5.49,2.46-5.49,5.49s2.46,5.49,5.49,5.49,5.49-2.46,5.49-5.49-2.46-5.49-5.49-5.49Z"/>
  <path class="st2" d="M406.15,167.45c2.45,0,4.43-1.98,4.43-4.43s-1.98-4.43-4.43-4.43-4.43,1.98-4.43,4.43,1.98,4.43,4.43,4.43Z"/>
  <circle class="st2" cx="463.39" cy="106.72" r="10.81"/>
  <path class="st2" d="M524.23,62.65c4.6,0,8.33-3.73,8.33-8.33s-3.73-8.33-8.33-8.33-8.33,3.73-8.33,8.33,3.73,8.33,8.33,8.33Z"/>
  <path class="st2" d="M2015.52,43.13c7.44,0,13.47-6.03,13.47-13.47s-6.03-13.47-13.47-13.47-13.47,6.03-13.47,13.47,6.03,13.47,13.47,13.47Z"/>
  <circle class="st2" cx="2078.05" cy="80.02" r="11.34"/>
  <path class="st2" d="M2137.12,146.44c6.65,0,12.05-5.4,12.05-12.05s-5.39-12.05-12.05-12.05-12.05,5.39-12.05,12.05,5.4,12.05,12.05,12.05Z"/>
  <path class="st2" d="M2405.52,512.48c-10.08,0-18.25,8.17-18.25,18.25s8.17,18.25,18.25,18.25,18.25-8.17,18.25-18.25-8.17-18.25-18.25-18.25Z"/>
  <path class="st2" d="M2408.92,605.76c0,13.9,11.27,25.16,25.16,25.16s25.16-11.27,25.16-25.16-11.27-25.16-25.16-25.16-25.16,11.27-25.16,25.16Z"/>
  <path class="st2" d="M2457.63,698.65c8.91,0,16.13-7.22,16.13-16.13s-7.22-16.13-16.13-16.13-16.13,7.22-16.13,16.13,7.22,16.13,16.13,16.13Z"/>
  <path class="st2" d="M2476.05,744.37c-9,0-16.3,7.3-16.3,16.3s7.3,16.3,16.3,16.3,16.3-7.3,16.3-16.3-7.3-16.3-16.3-16.3Z"/>
  <circle class="st2" cx="2489.26" cy="839.86" r="13.29"/>
  <path class="st2" d="M2475.24,919.76c0,12.14,9.84,21.97,21.97,21.97s21.97-9.84,21.97-21.97-9.84-21.97-21.97-21.97-21.97,9.84-21.97,21.97Z"/>
  <circle class="st2" cx="2541.13" cy="1239.48" r="22.15"/>
  <path class="st2" d="M2541.87,1317.84c0-10.08-8.17-18.25-18.25-18.25s-18.25,8.17-18.25,18.25,8.17,18.25,18.25,18.25,18.25-8.17,18.25-18.25Z"/>
  <path class="st2" d="M2520.89,1394.94c0-10.86-8.81-19.67-19.67-19.67s-19.67,8.81-19.67,19.67,8.81,19.67,19.67,19.67,19.67-8.81,19.67-19.67Z"/>
  <path class="st2" d="M410.82,1919.61c-6.65,0-12.05,5.39-12.05,12.05s5.39,12.05,12.05,12.05,12.05-5.4,12.05-12.05-5.4-12.05-12.05-12.05Z"/>
  <circle class="st2" cx="354.05" cy="1874.89" r="8.51"/>
  <circle class="st2" cx="300.96" cy="1814.66" r="8.68"/>
  <path class="st2" d="M257.95,1751.22c0-3.43-2.78-6.2-6.2-6.2s-6.2,2.78-6.2,6.2,2.78,6.2,6.2,6.2,6.2-2.78,6.2-6.2Z"/>
  <circle class="st2" cx="206.62" cy="1684.82" r="4.78"/>
  <path class="st2" d="M165.75,1611.28c-2.45,0-4.43,1.98-4.43,4.43s1.98,4.43,4.43,4.43,4.43-1.98,4.43-4.43-1.98-4.43-4.43-4.43Z"/>
  <circle class="st2" cx="129.29" cy="1544.17" r="4.25"/>
  <circle class="st2" cx="97.41" cy="1470.48" r="4.78"/>
  <path class="st2" d="M81.37,1394.94c0-6.17-5-11.16-11.16-11.16s-11.16,5-11.16,11.16,5,11.16,11.16,11.16,11.16-5,11.16-11.16Z"/>
  <path class="st2" d="M58.8,1317.84c0-6.07-4.92-10.99-10.99-10.99s-10.99,4.92-10.99,10.99,4.92,10.99,10.99,10.99,10.99-4.92,10.99-10.99Z"/>
  <circle class="st2" cx="47.81" cy="682.16" r="8.86"/>
  <path class="st2" d="M62.59,605.06c0,4.21,3.41,7.62,7.62,7.62s7.62-3.41,7.62-7.62-3.41-7.62-7.62-7.62-7.62,3.41-7.62,7.62Z"/>
  <path class="st2" d="M97.41,539.26c5.38,0,9.75-4.36,9.75-9.75s-4.36-9.75-9.75-9.75-9.75,4.36-9.75,9.75,4.36,9.75,9.75,9.75Z"/>
  <circle class="st2" cx="129.29" cy="455.83" r="9.92"/>
  <path class="st2" d="M165.75,387.3c1.66,0,3.01-1.35,3.01-3.01s-1.35-3.01-3.01-3.01-3.01,1.35-3.01,3.01,1.35,3.01,3.01,3.01Z"/>
  <path class="st2" d="M206.62,318.37c1.76,0,3.19-1.43,3.19-3.19s-1.43-3.19-3.19-3.19-3.19,1.43-3.19,3.19,1.43,3.19,3.19,3.19Z"/>
  <circle class="st2" cx="251.75" cy="248.78" r="2.84"/>
  <path class="st2" d="M300.96,190.83c3.03,0,5.49-2.46,5.49-5.49s-2.46-5.49-5.49-5.49-5.49,2.46-5.49,5.49,2.46,5.49,5.49,5.49Z"/>
  <path class="st2" d="M354.05,132.55c4.11,0,7.44-3.33,7.44-7.44s-3.33-7.44-7.44-7.44-7.44,3.33-7.44,7.44,3.33,7.44,7.44,7.44Z"/>
  <path class="st2" d="M410.82,77.02c4.8,0,8.68-3.89,8.68-8.68s-3.89-8.68-8.68-8.68-8.68,3.89-8.68,8.68,3.89,8.68,8.68,8.68Z"/>
  <path class="st2" d="M2160.61,85.53c9.49,0,17.19-7.7,17.19-17.19s-7.7-17.19-17.19-17.19-17.19,7.7-17.19,17.19,7.7,17.19,17.19,17.19Z"/>
  <path class="st2" d="M2217.38,136.63c6.36,0,11.52-5.16,11.52-11.52s-5.16-11.52-11.52-11.52-11.52,5.16-11.52,11.52,5.16,11.52,11.52,11.52Z"/>
  <path class="st2" d="M2252.93,185.34c0,9.69,7.85,17.54,17.54,17.54s17.54-7.85,17.54-17.54-7.85-17.54-17.54-17.54-17.54,7.85-17.54,17.54Z"/>
  <path class="st2" d="M301.99,1902.66c-5.58,0-10.1,4.52-10.1,10.1s4.52,10.1,10.1,10.1,10.1-4.52,10.1-10.1-4.52-10.1-10.1-10.1Z"/>
  <path class="st2" d="M240.3,1852.3c0,4.89,3.97,8.86,8.86,8.86s8.86-3.97,8.86-8.86-3.97-8.86-8.86-8.86-8.86,3.97-8.86,8.86h0Z"/>
  <circle class="st2" cx="200.05" cy="1788.78" r="7.09"/>
  <circle class="st2" cx="154.82" cy="1722.44" r="10.99"/>
  <path class="st2" d="M113.64,1648.91c-2.54,0-4.61,2.06-4.61,4.61s2.06,4.61,4.61,4.61,4.61-2.06,4.61-4.61-2.06-4.61-4.61-4.61Z"/>
  <path class="st2" d="M79.84,1582.25c0-1.76-1.43-3.19-3.19-3.19s-3.19,1.43-3.19,3.19,1.43,3.19,3.19,3.19,3.19-1.43,3.19-3.19Z"/>
  <path class="st2" d="M43.99,1505.01c-2.15,0-3.9,1.75-3.9,3.9s1.75,3.9,3.9,3.9,3.9-1.75,3.9-3.9-1.75-3.9-3.9-3.9Z"/>
  <circle class="st2" cx="200.05" cy="211.22" r="2.48"/>
  <path class="st2" d="M249.16,152.31c2.54,0,4.61-2.06,4.61-4.61s-2.06-4.61-4.61-4.61-4.61,2.06-4.61,4.61,2.06,4.61,4.61,4.61Z"/>
  <circle class="st2" cx="301.99" cy="87.24" r="5.14"/>
  <path class="st2" d="M358.34,37.3c4.01,0,7.26-3.25,7.26-7.26s-3.25-7.26-7.26-7.26-7.27,3.25-7.27,7.26,3.25,7.26,7.27,7.26Z"/>
  <path class="st2" d="M2241.69,76.47c10.08,0,18.25-8.17,18.25-18.25s-8.17-18.25-18.25-18.25-18.25,8.17-18.25,18.25,8.17,18.25,18.25,18.25Z"/>
  <path class="st2" d="M2296.31,133.38c9,0,16.3-7.3,16.3-16.3s-7.3-16.3-16.3-16.3-16.3,7.3-16.3,16.3,7.3,16.3,16.3,16.3Z"/>
  <circle class="st2" cx="2511.66" cy="454.18" r="20.38"/>
  <path class="st2" d="M2571.43,1549.67v-4.83c-.21.79-.49,1.56-.49,2.41s.28,1.62.49,2.41h0Z"/>
  <path class="st2" d="M2265.51,1995.78c-3.68,0-6.89,1.67-9.16,4.22h18.33c-2.27-2.54-5.49-4.22-9.16-4.22h-.01Z"/>
  <path class="st2" d="M197.38,1873.8c-8.91,0-16.13,7.22-16.13,16.13s7.22,16.13,16.13,16.13,16.13-7.22,16.13-16.13-7.22-16.13-16.13-16.13Z"/>
  <path class="st2" d="M148.35,1833.96c4.21,0,7.62-3.41,7.62-7.62s-3.41-7.62-7.62-7.62-7.62,3.41-7.62,7.62,3.41,7.62,7.62,7.62Z"/>
  <path class="st2" d="M103.03,1753.69c-3.52,0-6.38,2.86-6.38,6.38s2.86,6.38,6.38,6.38,6.38-2.86,6.38-6.38-2.86-6.38-6.38-6.38Z"/>
  <circle class="st2" cx="61.57" cy="1691.31" r="4.78"/>
  <path class="st2" d="M24.1,1615.33c-2.74,0-4.96,2.22-4.96,4.96s2.22,4.96,4.96,4.96,4.96-2.22,4.96-4.96-2.22-4.96-4.96-4.96Z"/>
  <circle class="st2" cx="103.03" cy="239.93" r="2.66"/>
  <path class="st2" d="M197.38,114.5c2.45,0,4.43-1.98,4.43-4.43s-1.98-4.43-4.43-4.43-4.43,1.98-4.43,4.43,1.98,4.43,4.43,4.43Z"/>
  <path class="st2" d="M249.96,53.29c2.15,0,3.9-1.75,3.9-3.9s-1.75-3.9-3.9-3.9-3.9,1.75-3.9,3.9,1.75,3.9,3.9,3.9Z"/>
  <path class="st2" d="M2321.47,61.97c6.95,0,12.58-5.63,12.58-12.58s-5.63-12.58-12.58-12.58-12.58,5.63-12.58,12.58,5.63,12.58,12.58,12.58Z"/>
  <path class="st2" d="M2571.43,1699.47v-11.05c-.93,1.66-1.61,3.48-1.61,5.53s.67,3.86,1.61,5.53h0Z"/>
  <path class="st2" d="M96.65,1873.65c5.38,0,9.75-4.36,9.75-9.75s-4.36-9.75-9.75-9.75-9.75,4.36-9.75,9.75,4.36,9.75,9.75,9.75Z"/>
  <path class="st2" d="M51.25,1789.36c-4.6,0-8.33,3.73-8.33,8.33s3.73,8.33,8.33,8.33,8.33-3.73,8.33-8.33-3.73-8.33-8.33-8.33Z"/>
  <circle class="st2" cx="96.65" cy="136.09" r="1.95"/>
  <circle class="st2" cx="145.6" cy="72.45" r="2.84"/>
  <path class="st2" d="M197.96,14.23c1.47,0,2.66-1.19,2.66-2.66s-1.19-2.66-2.66-2.66-2.66,1.19-2.66,2.66,1.19,2.66,2.66,2.66Z"/>
  <circle class="st2" cx="93.83" cy="34.83" r="6.02"/>
  <path class="st2" d="M0,1938.22v1.62c.03-.28.16-.52.16-.81s-.13-.53-.16-.81h0Z"/>
</svg>