<?xml version="1.0" encoding="UTF-8"?>
<svg id="Layer_1" data-name="Layer 1" xmlns="http://www.w3.org/2000/svg" viewBox="0 0 546.48 514.3">
  <defs>
    <style>
      .cls-1 {
        fill: #4eaa48;
      }

      .cls-2 {
        fill: #4ca947;
      }

      .cls-3 {
        font-family: Poppins-Medium, Poppins;
        font-size: 58.85px;
        font-weight: 500;
      }

      .cls-3, .cls-4 {
        fill: #faa819;
      }
    </style>
  </defs>
  <path class="cls-2" d="M340.3,155.9c53.06,47.39,34.52,135.05-28.18,165.1-70.62,35.65-157.71-16.37-156.23-96.22-.15-30.13,15.79-61.2,40.36-77.3,1.63-1.09,3.6,1.02,2.41,2.55-43.74,56.78-14.25,141.76,59.81,147.34,49.4,3.35,90.83-38.74,90.47-87.72.13-12.65-2.42-25.87-7.41-37.76-1.62-4.19-3.67-8.23-5.85-12.31-1.66-2.79,2.29-5.89,4.62-3.69h0Z"/>
  <path class="cls-2" d="M255.71,108.77c-1.55.06-3.29-2.09-5.18-3.54-4.82-3.7-10.11-6.72-15.1-10.17-8.48-5.87-16.96-11.73-25.44-17.6-12.69-8.78-25.38-17.56-38.07-26.34-.2-.14-.39-.27-.59-.41,10.09,8.5,20.19,17.01,30.28,25.51,14.15,11.92,28.29,23.84,42.44,35.76,1.67,1.41,4.92,2.93,2.16,4.59-1.71,1.03-4.49.64-6.41.84-4.69.49-9.44.41-14.14.1-11.93-.77-33.53-2.16-57.3-16.97-31.61-19.67-42.55-47.75-53.76-76.58-2.52-6.49-7.24-19.78-2.79-23.23,2.83-2.19,7.44.99,17.19,3.13,10.52,2.33,17.47,1.32,23.96,1.21,14.45-.17,35.41,4.21,51.63,12.64,34.15,17.69,45.5,52.19,49.08,63.06,1.94,5.9,4.53,11.71,5.14,17.96.24,2.44.24,5.03-.67,7.35-.75,1.92-1.57,2.64-2.43,2.68Z"/>
  <path class="cls-2" d="M443.78,81.43c-34.58,43.99-32.2,42.69-35.54,45.07-1.94,1.39-3.9,2.65-5.89,3.79-6.61,3.87-13.39,6.51-20.1,8.28-17.46,4.6-34.47,3.3-47.04,2.33-13.09-.99-36.21-2.77-39.88-14.23-.99-3.08-.9-7.83,11.76-24.35,14.65-19.11,27.18-35.46,51.58-48.05.55-.28,1.14-.59,1.77-.91,2.01-1.03,4.38-2.19,7.07-3.4,7.82-3.46,18.48-7.18,31.77-8.62,8.3-.9,19.47.49,41.8,3.25,14.23,1.77,17.83,2.81,19.4,5.81,3.15,6.02-4.28,15.24-16.69,31.03Z"/>
  <path class="cls-1" d="M261.52,234.71l19.95,25.49-6.35,4.85c-4.4,3.02-9.72,4.12-14.96,3.13-5.26-1-9.8-3.97-12.8-8.37l-4.26-6.23-2.02-2.96-4.67-6.83-.02-.17-.04-.19c-.57-3.16-.74-6.36-.5-9.46.79-11.88,6.9-22.55,16.75-29.27l36.96-25.22,2,2.91c9.77,14.34,5.78,25.84-7.27,36.98l-22.78,15.34Z"/>
  <path class="cls-1" d="M271.76,170.34l-31.94,28.9c-7.77,7.01-12.39,17.55-13.3,28.31l-3.79-7.08c-.93-1.74-1.71-3.54-2.33-5.41-5.31-15.53-.83-35.01,11.26-45.96l45.88-41.51,2.99,5.6c3.74,12.32.69,28.57-8.78,37.15Z"/>
  <path class="cls-1" d="M281.87,132.42l-3.89-7.33-47.07,42.59c-12.52,11.32-17.48,31.58-11.82,48.17.65,1.95,1.48,3.86,2.45,5.68l5.16,9.67c.26.49.53.98.78,1.46l.23-2.83h0s.2-2.26.2-2.26c.9-10.67,5.51-20.49,12.65-26.94l31.94-28.9c9.51-8.62,13.54-25.53,9.36-39.32ZM225.74,222.79l-1.81-3.4c-.88-1.64-1.63-3.37-2.22-5.15-5.15-15.07-.65-33.45,10.72-43.73l44.69-40.44,2.16,4.03c3.65,12.27.12,27.22-8.26,34.82l-31.94,28.9c-6.8,6.14-11.53,15.06-13.33,24.96Z"/>
  <path class="cls-1" d="M234.92,240.5c.01.7-.58,1.87-1.12,1.31-2.08-2.2-3.59-4.45-4.99-6.82-1.85-3.12-3.73-6.83-5.28-10.41-.9-2.08-2.28-5.16-3.73-10.54.85-.59,1.84,7.65,2.68,7.07,0,0,8.93,14.86,8.99,14.95l3.45,4.43Z"/>
  <path class="cls-2" d="M56.67,374.41c-9,2.14-30.19-.97-39.97.32-2.32.52-.73,10.25-1.18,11.91-1.58,7.81,40.15-3.18,37.18,4.57-.95,2.06,1.62,6.46-1.15,6.72-8.77,1.01-29.65-2.73-35.92,1.21-.05,4.11.64,17.06.59,21.17-.58,2.63-6.53.3-8.46.82-11.46,1.93-6.77-3.48-7.03-13.72,1.05-17.69.44-15-.68-39.86,16.88-2.38,33.18.26,53.14-1.57,4.02-.68,2.48,6.61,3.47,8.43Z"/>
  <path class="cls-2" d="M155.15,420.89c-3.83,1.16-10.35-.23-14.64.47-2.38.43-6.21-13.06-9.41-11.95-4.56-.11-27.39-.13-31.68,0-2.47-1.02-6.38,12.45-8.17,11.95,0,0-13.23,0-13.23,0-1.89-.08-1.15-.81-.35-2.31,8.82-15.84,14.01-26.32,25.45-44.56,3.92-5.36,3.14-10.77,12.58-8.66,2.32.49,6.43-1.95,7.82,1.02.94,1.46,5.59,9.34,13.93,23.63,11.8,20.09,17.69,30.23,17.69,30.41ZM127.75,399.26c.12-1.6-11.27-20.43-12.52-21.71-8.11,16.61-17.72,22.86-7.7,23.24,2.2-.23,20,1.02,20.22-1.53Z"/>
  <path class="cls-2" d="M253.8,367.24c-.28,12.82-1.32,26.5-.82,40.03-.8,6.23,2.1,12.12-1.35,14.09-4.36-1-9.81,1.48-13.58-1.29-8.04-7.04-27.19-24.52-43.15-37.86-1.73,7.18.57,30.09,0,37.86-.25,2.83-10.85.3-13.58,1.3-.98,0-1.47-.26-1.47-.78.54-15.29,1.89-26.02.7-43.11-.09-12.15-4.2-10.43,9.88-11.25,9.67.24,29.99,26.19,48.56,39.5,2.38-8.66-3.1-31.52.47-39.35,3.19.07,6.36.38,9.76.12,1.93.16,4.1-.89,4.58.74Z"/>
  <path class="cls-2" d="M357.03,420.89c-3.83,1.16-10.35-.23-14.64.47-2.38.43-6.21-13.06-9.41-11.95-4.56-.11-27.39-.13-31.68,0-2.47-1.02-6.38,12.45-8.17,11.95,0,0-13.23,0-13.23,0-1.89-.08-1.15-.81-.35-2.31,8.82-15.84,14.01-26.32,25.45-44.56,3.92-5.36,3.14-10.77,12.58-8.66,2.32.49,6.43-1.95,7.82,1.02.94,1.46,5.59,9.34,13.93,23.63,11.8,20.09,17.69,30.23,17.69,30.41ZM329.64,399.26c.12-1.6-11.27-20.43-12.52-21.71-8.11,16.61-17.72,22.86-7.7,23.24,2.2-.23,20,1.02,20.22-1.53Z"/>
  <path class="cls-2" d="M446.81,419.52c.92,3.64-13.8,1.15-15.22,1.84-2.21.37-15.68-16.26-16.93-18.54-2.22-7.15-14.66-6.4-17.75-4.27,0,2.4.13,6,.38,10.78-.47,6.7,3.46,13.46-4.44,11.91-3.52-.89-8.79,1.49-11.11-.78,1.29-15.98,1.16-37.23,0-53.22.5-1.58,2.78-.62,4.7-.74,3.29.23,6.53-.03,9.64-.12,3.83,2.77-.92,18.16,1,22.73,22.73,4.47,24.46-9.76,35.39-22.73.36-.2,13.53-.54,12.7,1.06-2.63,10.24-12.26,20.04-21.22,26.29,4.56,9.41,14.82,17.23,22.87,25.79Z"/>
  <path class="cls-2" d="M544.28,420.89c-3.83,1.16-10.35-.23-14.64.47-2.38.43-6.21-13.06-9.41-11.95-4.56-.11-27.39-.13-31.68,0-2.47-1.02-6.38,12.45-8.17,11.95,0,0-13.23,0-13.23,0-1.89-.08-1.15-.81-.35-2.31,8.82-15.84,14.01-26.32,25.45-44.56,3.92-5.36,3.14-10.77,12.58-8.66,2.32.49,6.43-1.95,7.82,1.02.94,1.46,5.59,9.34,13.93,23.63,11.8,20.09,17.69,30.23,17.69,30.41ZM516.89,399.26c.12-1.6-11.27-20.43-12.52-21.71-8.11,16.61-17.72,22.86-7.7,23.24,2.2-.23,20,1.02,20.22-1.53Z"/>
  <text class="cls-3" transform="translate(465.97 480.05)"><tspan x="0" y="0">Ug</tspan></text>
  <path class="cls-4" d="M402.35,130.29c-6.61,3.87-13.39,6.51-20.1,8.28-16.39-25.34-21.3-60.92-21.82-85.21,2.01-1.03,4.38-2.19,7.07-3.4,2.97,14.65,8.75,35.02,21.2,57.98,4.43,8.18,9.15,15.66,13.65,22.35Z"/>
</svg>